<svg width="20" height="21" viewBox="0 0 20 21" fill="none" xmlns="http://www.w3.org/2000/svg">
<path fill-rule="evenodd" clip-rule="evenodd" d="M10.0083 0.5C4.47396 0.5 0 5.00694 0 10.5826C0 15.0396 2.86662 18.8123 6.84338 20.1476C7.34058 20.248 7.5227 19.9306 7.5227 19.6637C7.5227 19.43 7.50631 18.6288 7.50631 17.7939C4.72225 18.395 4.14249 16.592 4.14249 16.592C3.69508 15.4235 3.03215 15.1232 3.03215 15.1232C2.12092 14.5055 3.09852 14.5055 3.09852 14.5055C4.1093 14.5723 4.63969 15.5405 4.63969 15.5405C5.53432 17.0761 6.97592 16.6422 7.55588 16.3751C7.63865 15.724 7.90394 15.2733 8.18563 15.023C5.96514 14.7893 3.62891 13.9213 3.62891 10.0484C3.62891 8.94662 4.02634 8.04523 4.65608 7.3442C4.55672 7.09386 4.20866 6.0587 4.75564 4.67322C4.75564 4.67322 5.60069 4.40608 7.5061 5.70818C8.32188 5.48747 9.16317 5.3752 10.0083 5.37426C10.8533 5.37426 11.7148 5.49123 12.5102 5.70818C14.4159 4.40608 15.2609 4.67322 15.2609 4.67322C15.8079 6.0587 15.4596 7.09386 15.3603 7.3442C16.0066 8.04523 16.3876 8.94662 16.3876 10.0484C16.3876 13.9213 14.0514 14.7725 11.8143 15.023C12.179 15.3401 12.4936 15.941 12.4936 16.8926C12.4936 18.2446 12.4773 19.3298 12.4773 19.6635C12.4773 19.9306 12.6596 20.248 13.1566 20.1478C17.1333 18.8121 20 15.0396 20 10.5826C20.0163 5.00694 15.526 0.5 10.0083 0.5Z" fill="white"/>
</svg>
