<svg width="36" height="27" viewBox="0 0 36 27" fill="none" xmlns="http://www.w3.org/2000/svg">
<path d="M10.4213 3.15211C13.8684 0.483577 18.8571 0.0174051 22.815 1.8293C24.765 2.73674 26.5078 4.0984 27.7591 5.83161C29.0794 7.60366 29.8614 9.73331 30.1062 11.9078C29.9508 12.1299 30.0046 12.4028 30.0117 12.6548C30.0097 13.4736 30.0006 14.2934 30.0138 15.1112C30.0402 14.1898 29.9711 13.2645 30.0554 12.3451C30.0747 12.3271 30.1133 12.2903 30.1326 12.2714C30.2413 13.1818 30.2585 14.1301 30.1976 15.0554C30.2209 15.2029 30.1021 15.3901 29.9193 15.2835C29.8553 15.0096 29.8584 14.7267 29.8543 14.4478C29.8117 14.4906 29.7263 14.5753 29.6837 14.6181C29.7588 13.633 29.8391 12.628 29.6502 11.6498C29.5872 11.7673 29.5252 11.8849 29.4684 12.0044C29.1617 9.55301 28.1897 7.14346 26.4946 5.29471C24.6838 3.26368 22.1284 1.86616 19.3974 1.4966C18.1533 1.32627 16.8807 1.35516 15.6447 1.56832C12.8365 2.07434 10.2487 3.63123 8.50384 5.84655C6.59751 8.20231 5.69563 11.2583 5.80634 14.2466C5.82157 14.7018 5.89063 15.1531 5.89266 15.6093C5.83477 15.6391 5.71798 15.6969 5.66009 15.7268C5.54735 15.7577 5.43563 15.7945 5.32087 15.8174C5.01009 13.5593 5.16954 11.2135 5.98204 9.06692C6.8179 6.72012 8.39415 4.63928 10.4213 3.15211Z" fill="white" stroke="#0C0C0C" stroke-width="0.333333"/>
<path d="M15.2807 4.58646C16.6061 3.64216 18.3591 3.69296 19.918 3.82943C19.718 3.89617 19.5047 3.87525 19.2985 3.87624C18.8527 3.86429 18.4149 3.96091 17.9782 4.02865C17.9051 3.84337 17.6786 3.95494 17.5313 3.93402C17.5232 3.96291 17.5049 4.01968 17.4958 4.04857C17.5587 3.88023 17.9305 3.88222 17.9752 4.0655C16.8813 4.28763 15.8972 4.89824 15.0695 5.61941C14.2793 6.35253 13.5734 7.18826 13.0758 8.14052C12.9377 8.40349 12.7955 8.66646 12.6695 8.9374C12.4786 9.32488 12.3242 9.72929 12.1566 10.1267C11.8144 10.9475 11.5574 11.7972 11.3137 12.6498C10.942 13.7147 10.4768 14.7665 9.77398 15.665C9.46523 15.9668 9.255 16.3792 8.85687 16.5814C8.97976 16.6033 9.10367 16.5715 9.22758 16.5914C9.04883 16.701 8.87516 16.8175 8.70656 16.94C8.52273 16.7089 8.20891 16.9938 8.4618 17.1741L8.2343 17.0924C8.1043 17.199 7.93875 17.2438 7.78844 17.3135C6.23351 17.9849 4.4968 17.7419 2.85555 17.6562C2.5793 17.6074 2.27156 17.6881 2.01562 17.5606C2.53562 17.5098 3.05867 17.5616 3.5807 17.5337C4.47648 17.8086 5.36414 17.2827 6.12281 16.8643C6.46406 16.6561 6.73625 16.3653 7.02164 16.0923C7.03078 16.0834 7.04805 16.0644 7.05617 16.0545C7.30906 15.676 7.61883 15.3084 7.72851 14.8612C7.7925 14.9677 7.8575 15.0743 7.92859 15.1769C7.89305 15.1042 7.82195 14.9578 7.78641 14.8851C7.97328 14.912 8.05453 14.8393 8.03016 14.6669L7.95094 14.6729L7.99055 14.8153C7.93266 14.8323 7.81687 14.8681 7.76 14.8851C7.79656 14.7755 7.8707 14.5554 7.90727 14.4448C7.97836 14.4528 8.04844 14.4617 8.11953 14.4717C8.06062 14.3382 7.95094 14.2018 8.02203 14.0464C8.20281 13.2515 7.76609 12.4516 7.99461 11.6637C8.09008 11.2234 8.32164 10.7971 8.69336 10.5232C9.03867 10.2453 9.47234 10.1088 9.84203 9.86675C10.1295 9.71535 10.0939 9.33882 10.1477 9.06788C10.162 7.87855 10.9227 6.62945 12.1434 6.32066C12.3344 6.27583 12.4908 6.1583 12.6391 6.03777C12.4502 6.37644 12.2663 6.7181 12.0612 7.04681C11.8794 7.27691 11.7301 7.52792 11.5595 7.76599L11.5016 7.77994C11.3675 8.1206 11.0882 8.38357 10.944 8.72025C10.6129 9.25615 10.6037 9.90859 10.3001 10.4544C10.1173 10.7493 9.80344 10.9356 9.61758 11.2304C9.45406 11.3848 9.38602 11.6019 9.27023 11.7882C9.09656 12.1867 8.92086 12.6219 8.98383 13.0622C9.03969 12.4357 9.34437 11.8709 9.65414 11.333C9.83797 11.0262 10.1802 10.8579 10.3752 10.561C10.6332 10.1018 10.6708 9.56593 10.8475 9.07884C10.9125 8.82783 11.1552 8.66945 11.1938 8.40847C11.4061 8.09869 11.6214 7.79089 11.8276 7.47712L11.92 7.51298C11.9545 7.38747 11.9759 7.254 12.0632 7.1504C12.3537 6.74101 12.5639 6.27185 12.9295 5.91724C13.5998 5.35843 14.3037 4.82253 15.1273 4.4998C15.1659 4.52171 15.2431 4.56554 15.2807 4.58646Z" fill="white" stroke="#0A0A0B" stroke-width="0.333333"/>
<path d="M15.6985 5.3146C16.9243 4.43605 18.5016 4.12726 19.9956 4.26273C20.7949 4.28863 21.5728 4.50279 22.3376 4.71695C22.556 4.78867 22.7926 4.83648 22.9774 4.97992C22.5915 4.92613 22.231 4.76476 21.846 4.704C20.1438 4.40118 18.331 4.61634 16.7872 5.39927C15.6863 6.04075 14.6808 6.90536 14.0897 8.03792C13.8632 8.41943 13.6469 8.8099 13.4925 9.22726C13.5189 9.30097 13.5524 9.37269 13.5941 9.44042C13.6276 9.15853 13.7617 8.90453 13.8602 8.64255C13.9628 8.95433 13.6763 9.25814 13.6713 9.57888C13.6438 10.306 13.6144 11.0411 13.6438 11.7653L13.6896 11.7643C13.7444 11.576 13.6946 11.3699 13.7109 11.1756L13.8378 11.1736C13.8297 11.4077 13.8216 11.6428 13.849 11.8769C13.9506 11.6348 13.8846 11.3699 13.8683 11.1188L13.7271 11.1497C13.8236 10.563 13.7393 9.9574 13.8906 9.37867C14.2654 7.69128 15.5075 6.22603 17.1173 5.53374C17.8171 5.24687 18.5859 5.27874 19.3263 5.21499L19.4177 5.22296C18.8449 5.29269 18.3472 5.61542 17.8099 5.80568C16.4388 6.47904 15.2394 7.57275 14.6036 8.95433C14.5 9.18243 14.3853 9.40954 14.3446 9.65857C14.4726 9.35874 14.6158 9.06689 14.7428 8.76706C15.4882 7.4323 16.7425 6.40433 18.1806 5.84851C19.0256 5.5437 19.9346 5.55367 20.8213 5.57757C22.1467 5.56363 23.4446 5.91226 24.6634 6.39835L24.6664 6.46908C24.7263 6.47704 24.8452 6.49099 24.9041 6.49796C24.6705 6.6424 24.3963 6.35552 24.1525 6.30572C22.428 5.62439 20.4739 5.80568 18.7697 6.45314C17.7846 6.91234 16.8502 7.50302 16.1423 8.32878C16.2134 8.33177 16.3556 8.33675 16.4256 8.33874L16.2763 8.21224C16.5485 8.05087 16.7446 7.79787 17.0005 7.61658C17.7835 7.04283 18.7392 6.742 19.696 6.59658C20.801 6.5149 21.9344 6.48402 23.015 6.76292L23.2232 6.76591C23.1867 6.79878 23.1115 6.86253 23.0739 6.89441C23.0201 6.90138 22.9124 6.91632 22.8586 6.92429C23.0475 6.95019 23.2364 6.93923 23.4131 6.86353C24.3861 7.08466 25.4017 7.43827 26.1076 8.15646C25.5906 7.83372 25.0818 7.46816 24.4785 7.31874C23.2029 7.01095 21.8735 6.9731 20.5704 7.09064C19.8067 7.14343 19.0531 7.31775 18.3645 7.65144C19.4949 7.30181 20.6903 7.55482 21.7841 7.90644C22.6961 8.27201 23.5482 8.82185 24.1505 9.59781L24.1972 9.7273C23.6803 9.32587 23.1603 8.9115 22.5499 8.65052C21.2204 8.04191 19.7122 7.93234 18.2741 8.12757C18.8855 8.15845 19.4979 8.17538 20.1012 8.29292C20.1053 8.27101 20.1124 8.22718 20.1164 8.20527C20.2393 8.24611 20.3653 8.24411 20.4922 8.20128C20.3581 8.24411 20.2271 8.29392 20.1022 8.35568C21.2539 8.54992 22.1883 9.35476 22.9165 10.2084C23.272 10.7413 23.726 11.2533 23.8763 11.8858C23.7727 11.7972 23.7321 11.6657 23.6671 11.5521C22.9226 10.1247 21.5028 9.04398 19.8899 8.74913C19.3699 8.59972 18.8195 8.72921 18.2964 8.59574C19.4096 8.82484 20.4841 9.30994 21.3118 10.0879C21.7069 10.4634 22.1182 10.8529 22.3488 11.3529C22.1629 11.1945 22.0146 11.0043 21.8694 10.811C20.8822 9.84583 19.5781 9.16152 18.1796 9.02605C17.5621 8.97724 16.8725 9.07585 16.4277 9.53804C15.8376 10.1158 15.7533 10.9814 15.6964 11.7534C15.6863 12.8172 15.8396 13.88 15.7492 14.9428C15.6822 15.7915 15.4547 16.6223 15.1043 17.4002C14.7844 18.0895 14.3243 18.7061 13.8013 19.2589C12.6313 20.3237 11.1637 21.1953 9.54377 21.3218C9.66971 21.3985 9.79971 21.4693 9.91854 21.5579C11.1921 21.2441 12.3621 20.6036 13.4042 19.8297C14.2268 19.1603 14.9835 18.3694 15.3978 17.3892C15.4476 17.2229 15.6365 17.0257 15.475 16.8653C15.5126 16.8773 15.5867 16.9012 15.6243 16.9131C15.7117 16.4121 15.9767 15.9479 15.9696 15.4289C16.3515 15.8871 16.3007 16.5555 16.124 17.0914C15.9808 17.4401 15.8112 17.7757 15.6131 18.0985C15.5329 18.221 15.4527 18.3445 15.3663 18.463C13.85 20.4642 11.3678 21.7103 8.83182 21.8C8.0315 21.776 7.23119 21.782 6.43088 21.779L6.43291 21.7482C7.38049 21.7472 8.3301 21.7721 9.27565 21.7133C9.07252 21.5589 8.79729 21.6057 8.58908 21.4633C7.37135 21.5778 6.17291 21.271 4.97651 21.1117C5.30455 20.8387 5.72502 21.1395 6.10588 21.0947C5.54322 20.9583 4.97955 20.8258 4.41588 20.6933C4.7094 20.5269 5.11971 20.5658 5.32791 20.271C5.84994 20.3427 6.37908 20.3267 6.90518 20.3377C8.2458 20.3516 9.5783 20.009 10.7727 19.4183C11.4704 19.0228 12.1702 18.5826 12.6678 17.9481C12.9867 17.6004 13.2427 17.204 13.4864 16.8035C14.0491 15.6431 14.2421 14.3283 14.1121 13.0533C14.046 12.6837 14.2116 12.3371 14.2004 11.9705C14.1649 12.1448 14.1334 12.3271 14.0227 12.4745C14.0105 12.3391 13.9871 12.0681 13.976 11.9326C13.8937 12.1119 13.9567 12.3092 13.9709 12.4954L14.1273 12.4626C13.9749 12.6648 14.0328 12.9218 14.0338 13.1529C14.0938 14.0493 14.0349 14.9677 13.6906 15.8104C13.5271 16.1441 13.3371 16.4649 13.1777 16.8006C12.4627 17.9311 11.3546 18.7778 10.0953 19.2579C8.48752 19.9432 6.67057 19.9094 4.96025 19.7191C5.04354 19.6534 5.1258 19.5886 5.20908 19.5229C6.55275 19.6613 7.93096 19.6344 9.24213 19.2928C10.6112 18.8615 11.9315 18.0875 12.7196 16.8763C13.7363 15.4738 13.8145 13.6868 13.785 12.0293C13.7678 12.0064 13.7342 11.9605 13.717 11.9376C13.6763 12.9636 13.7292 14.0274 13.4316 15.0315C13.0182 16.6581 11.7588 18.0009 10.2293 18.7061C8.95674 19.3237 7.49322 19.4781 6.09065 19.4083C4.52557 19.3595 3.0976 18.6473 1.57822 18.3664C1.32635 18.3067 1.04096 18.3425 0.82666 18.1762C1.39338 18.2688 1.97736 18.2708 2.539 18.4132C2.86502 18.473 3.16971 18.6294 3.50588 18.6344C3.66838 18.5567 3.40635 18.5069 3.34033 18.4979C3.45205 18.4491 3.56174 18.3963 3.6694 18.3405C3.25604 18.2768 2.83557 18.217 2.44455 18.0646C2.60197 18.0706 2.77158 18.0387 2.91479 18.1214C3.44799 18.2399 3.99338 18.2798 4.53674 18.3276C4.89525 18.3515 5.25479 18.3415 5.6133 18.3246C5.74025 18.3186 5.86822 18.3136 5.99518 18.3076C6.28768 18.2897 6.58221 18.3116 6.86049 18.4073C6.10588 18.464 5.34721 18.4451 4.59057 18.4511L4.58854 18.5009C5.1908 18.4969 5.79307 18.5198 6.39533 18.5308C6.83307 18.5557 7.2576 18.3983 7.69533 18.4411C7.76744 18.5029 7.83955 18.5646 7.91268 18.6264C7.44955 18.6662 6.99049 18.736 6.53041 18.7927L6.53955 18.6553C6.23791 18.7071 5.93119 18.7041 5.6326 18.6423L5.6915 18.8196C5.074 18.738 4.43111 18.6583 3.86135 18.4083C3.6694 18.4023 3.65314 18.5607 3.74354 18.6941C4.93689 19.0218 6.20846 18.9491 7.42111 18.7509C8.69065 18.5975 9.92869 18.0855 10.8763 17.2349C12.2992 15.8413 12.9106 13.8581 13.132 11.9436C13.1899 11.6308 13.1574 11.3011 13.2376 10.9953C13.3859 11.083 13.3158 11.3629 13.3585 11.5252C13.2579 11.1149 13.5768 10.7583 13.4509 10.3469L13.5301 10.2781C13.4935 10.2542 13.4214 10.2074 13.3859 10.1845C13.392 9.9056 13.4996 9.64163 13.5514 9.3707C13.5128 9.41552 13.4356 9.50417 13.3971 9.548C13.2975 9.90261 13.1482 10.2722 13.2295 10.6447C13.2488 10.5939 13.2884 10.4933 13.3077 10.4435C13.328 10.4285 13.3686 10.3987 13.3889 10.3837C13.5667 10.6228 13.3757 10.9087 13.1035 10.9405C12.9989 12.855 12.5825 14.8253 11.4562 16.428C10.6721 17.5825 9.3508 18.3067 7.9858 18.5796C7.86494 18.478 7.73088 18.3973 7.5826 18.3395C8.33314 18.3306 9.00244 17.951 9.64127 17.6064C10.4721 17.0864 11.2358 16.4121 11.6888 15.5395C11.2033 16.2268 10.6021 16.8354 9.88502 17.2936C9.89619 17.2249 9.91752 17.0884 9.92869 17.0197C9.56307 17.1601 9.17814 17.3604 8.77596 17.2378C9.71338 16.5585 10.6528 15.8045 11.1942 14.7675C11.8746 13.4407 11.9884 11.9336 12.3073 10.5052L12.1885 10.5072C12.1854 10.6068 12.1793 10.8041 12.1763 10.9027L12.091 10.829C12.1123 11.3121 11.8655 11.7613 11.8828 12.2444C11.8086 12.1518 11.7396 12.0502 11.6309 11.9954C11.896 11.4316 12.0168 10.815 12.2656 10.2453C12.2717 10.303 12.2849 10.4196 12.291 10.4784C12.3956 10.3897 12.418 10.2752 12.3581 10.1337C12.3814 10.1158 12.4281 10.0789 12.4515 10.061C12.9786 8.19431 14.0745 6.44816 15.6985 5.3146Z" fill="white" stroke="#050505" stroke-width="0.333333"/>
<path d="M14.9298 4.66113C14.9755 4.695 15.0212 4.72986 15.0679 4.76473C14.8821 4.82947 14.6952 4.91912 14.6007 5.10041C14.5652 5.06355 14.5296 5.0267 14.4951 4.98984C14.6556 4.90119 14.8049 4.79461 14.9298 4.66113Z" fill="white" stroke="#F4F4F3" stroke-width="0.333333"/>
<path d="M19.4877 5.08651C20.1915 4.9371 20.9309 4.89227 21.6418 5.02575C21.1401 5.13632 20.6201 5.05563 20.1133 5.12636C20.2768 5.16521 20.4413 5.20007 20.6069 5.23394C20.2108 5.25685 19.8116 5.27478 19.4176 5.22298L19.3262 5.21501C19.3658 5.18214 19.447 5.11839 19.4877 5.08651Z" fill="white" stroke="#E2E1E3" stroke-width="0.333333"/>
<path d="M14.4824 5.02869C14.4652 5.08148 14.4327 5.18906 14.4164 5.24285C13.9888 5.52773 13.6882 5.94509 13.3317 6.30269C13.3053 6.3266 13.2525 6.3754 13.2261 6.39931C13.0829 6.57064 12.962 6.76289 12.7914 6.9113C12.8107 6.94417 12.8483 7.00992 12.8676 7.04279C12.831 7.02785 12.7579 6.99896 12.7223 6.98501C12.6817 7.18125 12.502 7.29878 12.3963 7.45916C11.8824 8.2132 11.3127 8.96126 11.078 9.85376C10.9095 10.5361 10.5418 11.2543 9.86133 11.5581C9.97203 11.4306 10.1061 11.325 10.2483 11.2324L10.2605 11.1596L10.358 11.1567L10.3661 11.0859C10.4758 10.9833 10.5428 10.8469 10.6434 10.7373C10.7023 10.6168 10.7581 10.4943 10.7876 10.3638L10.8658 10.3976C10.9338 9.82886 11.204 9.30492 11.398 8.77101L11.4579 8.79093C11.4945 8.60068 11.6295 8.45326 11.7037 8.27794L11.7565 8.26201C11.8022 8.14447 11.8682 8.0349 11.9545 7.94027C12.0165 7.83667 12.0845 7.73706 12.1556 7.63945C12.6127 6.9372 13.1845 6.31962 13.737 5.69009L13.8111 5.67714L13.8213 5.60343C13.8507 5.57953 13.9096 5.52972 13.9401 5.50482C14.1107 5.33548 14.2925 5.1781 14.4824 5.02869Z" fill="white" stroke="#F4F4F3" stroke-width="0.333333"/>
<path d="M10.939 6.64743C11.5078 6.29481 12.1436 5.96809 12.822 5.90833C12.5854 6.07766 12.2664 6.05973 12.0146 6.20516C11.7475 6.33266 11.4621 6.43924 11.2457 6.64444C11.0924 6.79983 10.939 6.95422 10.7775 7.10065L10.7552 7.14547C10.3418 7.58077 10.1387 8.18042 10.0625 8.76213C10.0666 9.06395 9.99449 9.3568 9.94371 9.65264C9.50496 9.97239 8.97379 10.1487 8.53707 10.4794L8.52691 10.5422C8.49441 10.5631 8.43043 10.6059 8.39793 10.6278C8.35121 10.7055 8.25777 10.8599 8.21207 10.9376C8.13285 10.842 8.05363 10.7483 7.97949 10.6507C8.17957 10.5441 8.32481 10.3668 8.50254 10.2314C8.85395 9.93254 9.29676 9.76022 9.64105 9.45342C9.71113 8.82489 9.73855 8.15651 10.0727 7.59571C10.285 7.22018 10.5663 6.87952 10.939 6.64743Z" fill="white" stroke="#191717" stroke-width="0.333333"/>
<path d="M18.3643 7.6515C19.0529 7.31781 19.8064 7.14349 20.5702 7.0907C21.207 7.33474 21.9047 7.06181 22.5557 7.20226C22.5872 7.23314 22.6502 7.2939 22.6817 7.32478C22.5822 7.34171 22.4826 7.35665 22.3831 7.36861C22.1942 7.31283 22.0043 7.30386 21.8438 7.43236C21.9494 7.50408 22.0561 7.5758 22.1617 7.64951C22.0581 7.6764 21.9545 7.7023 21.8519 7.7282C21.9809 7.73417 22.0906 7.779 22.181 7.86466C22.0814 7.87462 21.8824 7.89554 21.7839 7.9065C20.69 7.55488 19.4946 7.30187 18.3643 7.6515Z" fill="white" stroke="#E8E8EA" stroke-width="0.333333"/>
<path d="M22.3833 7.36855C22.4829 7.3566 22.5824 7.34166 22.6819 7.32472C23.1999 7.28687 23.795 7.39445 24.1556 7.79289C24.5801 8.15148 25.0646 8.43935 25.4769 8.81289C25.484 8.85273 25.4983 8.93242 25.5054 8.97226C25.1641 8.67842 24.8218 8.35668 24.3668 8.24711C24.0642 8.1206 23.729 8.21025 23.4183 8.13056C23.0445 8.03992 22.6555 7.97716 22.3082 7.80882C22.1315 7.69328 22.3488 7.50203 22.3833 7.36855Z" fill="white" stroke="#0C0B0C" stroke-width="0.333333"/>
<path d="M13.9385 8.52307C13.9987 8.58703 13.9987 8.58703 13.9385 8.52307Z" fill="white" stroke="#4E4A59" stroke-width="0.333333"/>
<path d="M13.397 9.54803C13.4356 9.5042 13.5128 9.41555 13.5514 9.37073C13.4996 9.64167 13.3919 9.90563 13.3858 10.1845C13.4214 10.2074 13.4935 10.2543 13.5301 10.2782L13.4508 10.3469C13.5768 10.7583 13.2579 11.1149 13.3584 11.5253C13.3158 11.3629 13.3858 11.083 13.2376 10.9954C13.1573 11.3012 13.1898 11.6309 13.1319 11.9436C12.9105 13.8581 12.2991 15.8414 10.8762 17.2349C9.92865 18.0856 8.6906 18.5975 7.42107 18.7509C6.20841 18.9492 4.93685 19.0219 3.74349 18.6942C3.6531 18.5607 3.66935 18.4023 3.8613 18.4083C4.43107 18.6583 5.07396 18.738 5.69146 18.8197L5.63255 18.6424C5.93115 18.7041 6.23787 18.7071 6.53951 18.6553L6.53037 18.7928C6.99044 18.736 7.44951 18.6663 7.91263 18.6264C7.83951 18.5647 7.7674 18.5029 7.69529 18.4412C7.25755 18.3983 6.83302 18.5557 6.39529 18.5308C5.79302 18.5198 5.19076 18.4969 4.58849 18.5009L4.59052 18.4511C5.34716 18.4451 6.10583 18.4641 6.86044 18.4073C7.93599 18.2629 8.99732 17.9182 9.88498 17.2937C10.602 16.8355 11.2033 16.2268 11.6887 15.5395C11.2358 16.4121 10.472 17.0865 9.64123 17.6064C9.0024 17.9511 8.3331 18.3306 7.58255 18.3396C7.73083 18.3973 7.8649 18.478 7.98576 18.5796C9.35076 18.3067 10.6721 17.5825 11.4561 16.4281C12.5825 14.8253 12.9989 12.8551 13.1035 10.9406C13.3757 10.9087 13.5666 10.6228 13.3889 10.3838C13.3686 10.3987 13.3279 10.4286 13.3076 10.4435C13.2883 10.4933 13.2487 10.5939 13.2294 10.6447C13.1482 10.2722 13.2975 9.90264 13.397 9.54803Z" fill="white" stroke="#F4F4F3" stroke-width="0.333333"/>
<path d="M26.3401 9.8986C26.528 9.796 26.7829 9.85576 26.8246 10.0859C26.7707 10.2622 26.5808 10.3249 26.4153 10.2622C26.3594 10.1476 26.2782 10.0281 26.3401 9.8986Z" fill="white" stroke="#1D1F1D" stroke-width="0.333333"/>
<path d="M24.3708 9.93952C24.6237 9.90266 24.9172 10.1547 24.773 10.4047C24.5312 10.6228 24.2824 10.1238 24.3708 9.93952Z" fill="white" stroke="#040305" stroke-width="0.333333"/>
<path d="M25.29 10.8479C25.3682 10.7792 25.4525 10.7194 25.5368 10.6597C25.6546 10.7394 25.8618 10.7812 25.7988 10.9695C25.7155 11.0352 25.6312 11.0989 25.5449 11.1587C25.4342 11.081 25.227 11.0272 25.29 10.8479Z" fill="white" stroke="#3C3C37" stroke-width="0.333333"/>
<path d="M7.82334 10.8071C7.8985 10.9396 8.00209 11.0303 8.16256 11.0223C7.70756 11.595 7.79592 12.3849 7.94014 13.0543C8.11889 13.9398 7.69232 14.7746 7.29217 15.5376L7.23529 15.5475C7.13576 15.7986 6.94381 15.9988 6.78131 16.2119C6.7549 16.2418 6.70311 16.3006 6.67772 16.3305L6.60459 16.3394L6.59647 16.4181C6.41365 16.5416 6.23287 16.6691 6.06428 16.8106C6.01451 16.8365 5.916 16.8873 5.86623 16.9132C5.2142 17.3106 4.47889 17.6104 3.69482 17.5616L3.69686 17.4461C4.20771 17.4421 4.65967 17.1672 5.11264 16.965C5.25889 16.8813 5.40514 16.7956 5.5524 16.712C6.2024 16.2866 6.66654 15.6481 7.08803 15.0146C7.39271 14.5086 7.5867 13.9349 7.5999 13.3452C7.53897 12.9139 7.36225 12.4965 7.40795 12.0532C7.38459 11.596 7.68623 11.2205 7.82334 10.8071Z" fill="white" stroke="#191918" stroke-width="0.333333"/>
<path d="M16.0162 12.8013C15.9614 12.1877 15.7918 11.5312 16.0091 10.9346C16.1889 11.845 16.457 12.7405 16.8155 13.5991C16.91 13.7665 16.7972 13.9428 16.7921 14.1171C16.847 14.0274 16.8988 13.9368 16.9516 13.8471C17.2289 14.8452 17.8281 15.7338 18.4781 16.5386C19.1911 17.3733 20.0452 18.1114 21.0659 18.5617C21.0314 18.6095 20.9643 18.7041 20.9308 18.7519C20.8516 18.7459 20.6932 18.734 20.6139 18.728L20.6048 18.8187C20.6576 18.8226 20.7622 18.8296 20.815 18.8336L20.81 18.9701C19.9233 18.6812 19.123 18.1881 18.4151 17.5954C17.5721 16.8115 16.912 15.8334 16.5382 14.7526C16.3128 14.1071 16.0589 13.4497 16.0426 12.7614C15.9126 12.9278 15.8933 13.1329 15.8893 13.3362C15.8923 13.1618 15.8568 12.9756 15.9725 12.8222L15.7979 12.7236C15.8527 12.7435 15.9624 12.7813 16.0162 12.8013Z" fill="white" stroke="#0C0B0C" stroke-width="0.333333"/>
<path d="M29.4683 12.0044C29.5251 11.8849 29.5871 11.7673 29.6501 11.6498C29.839 12.6279 29.7587 13.633 29.6836 14.6181C29.7262 14.5753 29.8115 14.4906 29.8542 14.4478C29.8583 14.7267 29.8552 15.0096 29.9192 15.2835L29.9253 15.3124C29.8085 15.3174 29.6917 15.3224 29.5749 15.3284C29.58 14.2207 29.6064 13.1041 29.4683 12.0044Z" fill="white" stroke="#171719" stroke-width="0.333333"/>
<path d="M11.7692 12.5532C11.629 12.5234 11.5234 12.1956 11.6778 12.092C11.759 12.2265 11.7895 12.3809 11.7692 12.5532Z" fill="white" stroke="#020104" stroke-width="0.333333"/>
<path d="M16.9443 12.8999C17.0053 12.6868 16.9809 12.4686 16.986 12.2515C17.2886 12.8421 17.6614 13.402 18.1245 13.8831C18.0696 13.8841 17.9589 13.8871 17.9031 13.889C17.9407 14.0225 18.0747 14.0155 18.1722 13.9488C18.2169 14.0066 18.3063 14.1221 18.351 14.1799C18.8842 14.7248 19.4621 15.2238 20.0623 15.696C20.0471 15.6422 20.0166 15.5336 20.0014 15.4798C19.5281 15.1391 19.0873 14.7517 18.7064 14.3124C18.6354 14.2337 18.5358 14.1022 18.6211 13.9986C18.8669 13.6599 19.1249 13.3272 19.4346 13.0424C19.5372 13.134 19.6104 13.1021 19.653 12.9467C19.8602 13.3701 20.1375 13.7586 20.4401 14.1211C20.9357 14.5893 21.5461 14.929 22.0783 15.3453L22.2256 15.2935C22.2347 15.3404 22.251 15.435 22.2591 15.4828L22.4429 15.3623L22.4267 15.5326C22.6237 15.5515 22.8207 15.6272 22.9934 15.7169C23.2971 15.8165 23.6109 15.8643 23.9308 15.8573L23.9196 15.9858L23.9125 16.0476L23.8618 16.1303C23.6932 16.1482 23.5246 16.1611 23.356 16.1681C22.5516 16.0804 21.733 15.8643 21.085 15.3692C20.9967 15.3214 20.9093 15.2736 20.823 15.2258L20.821 15.1431L20.7194 15.1421V15.0445L20.6422 15.0385C20.6158 15.0087 20.562 14.9489 20.5356 14.919C20.0684 14.4389 19.8175 13.8113 19.6063 13.1988C19.6906 13.5215 19.6743 13.894 19.9018 14.164C20.0207 14.2765 20.0318 14.4419 20.0684 14.5913L20.1669 14.5395C20.2339 14.654 20.3061 14.7656 20.3843 14.8742C20.691 15.175 20.9946 15.4928 21.3948 15.676C21.6446 15.8504 21.9392 15.94 22.2144 16.0685C22.4531 16.1512 22.6968 16.2189 22.9467 16.2647C22.6532 16.4679 22.3302 16.2169 22.0479 16.1193C22.0123 16.1651 21.9422 16.2558 21.9067 16.3016C22.4216 16.459 22.9528 16.5745 23.4971 16.5486L23.4494 16.702C22.6004 16.6861 21.7513 16.439 20.9896 16.0705C20.7204 15.942 20.4462 15.8125 20.2248 15.6113C20.1689 15.6531 20.1131 15.696 20.0593 15.7398C20.4229 15.8145 20.7123 16.0725 21.0505 16.2169C21.7828 16.5247 22.5546 16.7976 23.357 16.8395C23.2087 17.0068 23.0066 17.0487 22.7913 17.0098C22.7243 17.0656 22.6613 17.1254 22.6024 17.1881C21.8447 17.0566 21.1216 16.7767 20.4503 16.4141C20.0816 16.1651 19.6916 15.941 19.3615 15.6412L19.2082 15.7318L19.3138 15.5416H19.196V15.43L19.0111 15.5216L19.0883 15.3702C18.9502 15.3015 18.806 15.2288 18.7176 15.0983C18.4444 14.7258 18.0432 14.4508 17.8381 14.0295L17.7558 14.1271C17.8005 13.7556 17.4166 13.5245 17.3323 13.1848C17.3079 13.2386 17.2866 13.2934 17.2683 13.3502C17.4471 13.5992 17.5943 13.8671 17.7558 14.1271C17.8046 14.1919 17.835 14.2636 17.8482 14.3403C17.705 14.3811 17.6675 14.2188 17.6238 14.1261C17.6126 14.2048 17.5882 14.3632 17.5771 14.4419C17.5496 14.4598 17.4968 14.4967 17.4704 14.5156C17.4298 14.0016 17.1647 13.5065 17.0642 13.0145C17.1332 12.8591 17.2155 13.2456 17.2714 13.0792C17.2379 12.9796 17.1982 12.882 17.1536 12.7884C17.0835 12.8252 17.0134 12.8621 16.9443 12.8999Z" fill="white"/>
<path d="M17.7558 14.1271L17.8381 14.0295C18.0432 14.4508 18.4444 14.7258 18.7176 15.0983C18.806 15.2288 18.9502 15.3015 19.0883 15.3702L19.0111 15.5216L19.196 15.43V15.5416H19.3138L19.2082 15.7318L19.3615 15.6412C19.6916 15.941 20.0816 16.1651 20.4503 16.4141C21.1216 16.7767 21.8447 17.0566 22.6024 17.1881C22.6613 17.1254 22.7243 17.0656 22.7913 17.0098C23.0066 17.0487 23.2087 17.0068 23.357 16.8395C22.5546 16.7976 21.7828 16.5247 21.0505 16.2169C20.7123 16.0725 20.4229 15.8145 20.0593 15.7398C20.1131 15.696 20.1689 15.6531 20.2248 15.6113C20.4462 15.8125 20.7204 15.942 20.9896 16.0705C21.7513 16.439 22.6004 16.6861 23.4494 16.702L23.4971 16.5486C22.9528 16.5745 22.4216 16.459 21.9067 16.3016C21.9422 16.2558 22.0123 16.1651 22.0479 16.1193C22.3302 16.2169 22.6532 16.4679 22.9467 16.2647C22.6968 16.2189 22.4531 16.1512 22.2144 16.0685C21.9392 15.94 21.6446 15.8504 21.3948 15.676C20.9946 15.4928 20.691 15.175 20.3843 14.8742C20.3061 14.7656 20.2339 14.654 20.1669 14.5395L20.0684 14.5913C20.0318 14.4419 20.0207 14.2765 19.9018 14.164C19.6743 13.894 19.6906 13.5215 19.6063 13.1988C19.8175 13.8113 20.0684 14.4389 20.5356 14.919C20.562 14.9489 20.6158 15.0087 20.6422 15.0385L20.7194 15.0445V15.1421L20.821 15.1431L20.823 15.2258C20.9093 15.2736 20.9967 15.3214 21.085 15.3692C21.733 15.8643 22.5516 16.0804 23.356 16.1681C23.5246 16.1611 23.6932 16.1482 23.8618 16.1303L23.9125 16.0476L23.9196 15.9858L23.9308 15.8573C23.6109 15.8643 23.2971 15.8165 22.9934 15.7169C22.8207 15.6272 22.6237 15.5515 22.4267 15.5326L22.4429 15.3623L22.2591 15.4828C22.251 15.435 22.2347 15.3404 22.2256 15.2935L22.0783 15.3453C21.5461 14.929 20.9357 14.5893 20.4401 14.1211C20.1375 13.7586 19.8602 13.3701 19.653 12.9467C19.6104 13.1021 19.5372 13.134 19.4346 13.0424C19.1249 13.3272 18.8669 13.6599 18.6211 13.9986C18.5358 14.1022 18.6354 14.2337 18.7064 14.3124C19.0873 14.7517 19.5281 15.1391 20.0014 15.4798C20.0166 15.5336 20.0471 15.6422 20.0623 15.696C19.4621 15.2238 18.8842 14.7248 18.351 14.1799C18.3063 14.1221 18.2169 14.0066 18.1722 13.9488C18.0747 14.0155 17.9407 14.0225 17.9031 13.889C17.9589 13.8871 18.0696 13.8841 18.1245 13.8831C17.6614 13.402 17.2886 12.8421 16.986 12.2515C16.9809 12.4686 17.0053 12.6868 16.9443 12.8999C17.0134 12.8621 17.0835 12.8252 17.1536 12.7884C17.1982 12.882 17.2379 12.9796 17.2714 13.0792C17.2155 13.2456 17.1332 12.8591 17.0642 13.0145C17.1647 13.5065 17.4298 14.0016 17.4704 14.5156C17.4968 14.4967 17.5496 14.4598 17.5771 14.4419C17.5882 14.3632 17.6126 14.2048 17.6238 14.1261C17.6675 14.2188 17.705 14.3811 17.8482 14.3403C17.835 14.2636 17.8046 14.1919 17.7558 14.1271ZM17.7558 14.1271C17.8005 13.7556 17.4166 13.5245 17.3323 13.1848C17.3079 13.2386 17.2866 13.2934 17.2683 13.3502C17.4471 13.5992 17.5943 13.8671 17.7558 14.1271Z" stroke="#0D0D0D" stroke-width="0.333333"/>
<path d="M11.4846 12.364C11.5607 12.4835 11.6329 12.6071 11.7222 12.7186C11.6064 13.1967 11.4409 13.6629 11.2449 14.1151C11.1494 14.3243 11.0214 14.5206 10.9524 14.7417L10.8874 14.7526C10.6101 15.4868 9.97027 16.0257 9.34059 16.4769L9.40457 16.5865C9.31723 16.5446 9.22988 16.5038 9.14355 16.4629C10.0932 15.7228 10.7046 14.657 11.1189 13.5553C11.255 13.1639 11.448 12.7824 11.4846 12.364Z" fill="white" stroke="#2F312C" stroke-width="0.333333"/>
<path d="M25.7605 12.7256C25.8936 12.5124 26.1749 12.7246 26.1068 12.9387C25.9504 13.0593 25.5564 12.9417 25.7605 12.7256Z" fill="white" stroke="#191717" stroke-width="0.333333"/>
<path d="M22.64 12.8221C23.1427 13.2027 23.5195 13.7246 24.0141 14.1171C24.2254 14.3003 24.5331 14.3651 24.6864 14.6111C24.4417 14.6121 24.2487 14.4737 24.0659 14.3402C23.746 14.0852 23.4291 13.8133 23.226 13.4547L23.1356 13.4656C23.2869 13.6768 23.4535 13.869 23.62 14.0712L23.3082 14.0194C23.4433 14.0782 23.5845 14.1191 23.7297 14.1489C23.8973 14.3312 24.1126 14.4597 24.3178 14.5972C24.4874 14.5802 24.6133 14.7038 24.7535 14.7755C24.7372 14.6848 24.6966 14.5892 24.7514 14.5045C25.1313 14.7595 25.5934 14.9259 26.0535 14.9627C26.0718 14.9926 26.1083 15.0514 26.1266 15.0803C26.5176 15.1301 26.9107 15.157 27.3057 15.163L27.3047 15.2307C26.8782 15.2686 26.4445 15.164 26.023 15.2576C25.6696 15.2974 25.3121 15.2387 24.9576 15.2686C25.7559 15.5046 26.6192 15.1879 27.4164 15.4558C27.585 15.5694 27.7821 15.4498 27.9618 15.4349C27.9486 15.675 27.6379 15.5086 27.5099 15.5773L27.5607 15.7148C27.8196 15.7795 28.0827 15.8333 28.3386 15.912C27.8369 15.8353 27.3321 15.7058 26.8243 15.8234C25.9214 15.8493 25.0054 15.9728 24.1086 15.8333L24.07 15.7138C24.1218 15.7048 24.2264 15.6869 24.2792 15.6779C24.2162 15.6799 24.0893 15.6829 24.0253 15.6839L24.0649 15.8403C23.5622 15.6979 23.0066 15.6909 22.5333 15.4259C22.5069 15.3104 22.5354 15.163 22.4267 15.0823C22.3119 15.0972 22.25 15.2247 22.1555 15.2795L22.1342 15.162C21.8691 15.0982 21.6528 14.9149 21.4639 14.7307C21.6386 14.6251 21.8772 14.5713 21.9564 14.3611C22.1789 14.9926 22.8888 15.1241 23.4311 15.3751C23.7196 15.4409 24.0009 15.5375 24.2954 15.5793C24.3107 15.5504 24.3422 15.4937 24.3574 15.4648C23.7318 15.417 23.1457 15.1909 22.5861 14.9259C22.4064 14.8084 22.2418 14.6719 22.0854 14.5285C22.0946 14.4667 22.1129 14.3422 22.122 14.2794L22.0296 14.3143C22.0367 13.9637 21.9981 13.5981 22.1596 13.2724C22.2418 13.2266 22.3241 13.1807 22.4064 13.1359C22.5262 13.7087 22.8725 14.2256 23.3885 14.5235C23.5296 14.5793 23.6729 14.634 23.8018 14.7147C24.5331 14.9956 25.309 15.1799 26.0992 15.158C25.8778 14.9747 25.5639 15.0434 25.2999 14.9787C24.8835 14.9667 24.4975 14.8094 24.0964 14.7297C23.9643 14.6858 23.8333 14.635 23.7064 14.5802C23.5774 14.5205 23.3986 14.5155 23.3275 14.3741C23.2483 14.3043 23.3489 14.1898 23.2747 14.1201C23.2006 14.0145 23.1163 14.1768 23.0574 14.2167C22.8014 13.872 22.5455 13.4875 22.5486 13.0443C22.5719 12.9885 22.6176 12.8779 22.64 12.8221Z" fill="white" stroke="#0D0F0E" stroke-width="0.333333"/>
<path d="M5.62352 15.2457C5.52704 14.5175 5.54837 13.7655 5.64587 13.0383C5.64383 13.7725 5.75758 14.5195 5.62352 15.2457Z" fill="white" stroke="#252726" stroke-width="0.333333"/>
<path d="M16.8936 13.0503C16.9687 13.5852 17.2602 14.0554 17.375 14.5813C17.1729 14.0872 16.9098 13.5912 16.8936 13.0503Z" fill="white" stroke="#040305" stroke-width="0.333333"/>
<path d="M22.7589 13.11C22.894 13.102 22.96 13.1717 22.9569 13.3202C22.8219 13.3232 22.7558 13.2534 22.7589 13.11Z" fill="white" stroke="#737E76" stroke-width="0.333333"/>
<path d="M17.2686 13.35C17.2868 13.2933 17.3082 13.2385 17.3325 13.1847C17.4168 13.5244 17.8007 13.7555 17.7561 14.127C17.5946 13.867 17.4473 13.5991 17.2686 13.35Z" fill="white" stroke="#F4F4F3" stroke-width="0.333333"/>
<path d="M22.2666 13.3661C22.3218 13.424 22.3218 13.424 22.2666 13.3661Z" fill="white" stroke="#5C615D" stroke-width="0.333333"/>
<path d="M22.169 13.5752C22.3 13.6001 22.298 13.8402 22.2319 13.9348C22.0837 13.9228 22.1111 13.6698 22.169 13.5752Z" fill="white" stroke="#404240" stroke-width="0.333333"/>
<path d="M22.3477 13.9547C22.5335 14.137 22.7041 14.3332 22.891 14.5155C22.9438 14.4966 23.0505 14.4587 23.1033 14.4398L22.9936 14.643C22.7732 14.4219 22.4421 14.2695 22.3477 13.9547Z" fill="white" stroke="#E8E8EA" stroke-width="0.333333"/>
<path d="M22.1719 14.0752C22.225 14.1332 22.225 14.1332 22.1719 14.0752Z" fill="white" stroke="#545753" stroke-width="0.333333"/>
<path d="M25.1499 14.3402C25.3378 14.3392 25.5176 14.401 25.6933 14.4607C25.7166 14.4946 25.7613 14.5633 25.7837 14.5972C25.5765 14.5076 25.3114 14.5066 25.1499 14.3402Z" fill="white" stroke="#040305" stroke-width="0.333333"/>
<path d="M17.5777 14.4418C17.6478 14.4956 17.7138 14.5563 17.7757 14.6241C17.8966 14.3232 18.2348 14.5952 18.2094 14.8243L18.375 14.7615L18.2866 14.903C18.3993 15.0036 18.508 15.1082 18.6136 15.2157C18.8777 15.5205 19.1753 15.7935 19.4779 16.0614C19.5013 16.0883 19.55 16.1401 19.5744 16.166C20.13 16.6451 20.7312 17.1013 21.4391 17.3404C22.7879 17.8185 24.2564 17.9191 25.6763 17.7777C25.7636 17.8634 25.853 17.949 25.9414 18.0347L25.7514 18.0496L25.655 18.0237C25.3848 17.948 25.0943 17.95 24.8222 17.9749C25.0913 17.9849 25.3696 17.9899 25.6164 18.1124C24.8811 18.1472 24.2036 18.4999 23.4683 18.5297C22.3846 18.4919 21.3121 18.213 20.3554 17.709C19.6871 17.3544 19.1164 16.8613 18.6146 16.3055C18.5029 16.18 18.4095 16.0395 18.31 15.905C18.0682 15.5106 17.7991 15.1191 17.6539 14.6808L17.5635 14.6988C17.5665 14.635 17.5736 14.5055 17.5777 14.4418Z" fill="white" stroke="#0C0B0B" stroke-width="0.333333"/>
<path d="M18.3815 14.4817C18.5196 14.4568 18.5785 14.5146 18.5603 14.652C18.4191 14.6779 18.3592 14.6212 18.3815 14.4817Z" fill="white" stroke="#393839" stroke-width="0.333333"/>
<path d="M17.3755 14.5813C17.6995 14.5942 17.2394 14.8961 17.3755 14.5813Z" fill="white" stroke="#A5A1AA" stroke-width="0.333333"/>
<path d="M18.71 14.7606C18.7621 14.8186 18.7621 14.8186 18.71 14.7606Z" fill="white" stroke="#444341" stroke-width="0.333333"/>
<path d="M23.1805 14.7595C23.2801 14.7058 23.4842 14.8004 23.4456 14.9259C23.3441 15.0046 23.1277 14.8851 23.1805 14.7595Z" fill="white" stroke="#3D3C37" stroke-width="0.333333"/>
<path d="M24.9082 14.7655C24.9685 14.8195 24.9685 14.8195 24.9082 14.7655Z" fill="white" stroke="#666D64" stroke-width="0.333333"/>
<path d="M17.6025 14.9707C17.6485 15.0257 17.6485 15.0257 17.6025 14.9707Z" fill="white" stroke="#040305" stroke-width="0.333333"/>
<path d="M20.2324 14.9707C20.2866 15.0277 20.2866 15.0277 20.2324 14.9707Z" fill="white" stroke="#4D4F50" stroke-width="0.333333"/>
<path d="M23.3926 15.0992C23.4627 15.0654 23.5358 15.0345 23.6089 15.0036C23.6546 15.0365 23.746 15.1002 23.7917 15.1331C24.0548 14.7646 24.4184 15.2756 24.7657 15.1739L24.7718 15.2367C24.5951 15.2307 24.4021 15.1909 24.2406 15.2835C23.9593 15.2228 23.6871 15.1032 23.3926 15.0992Z" fill="white" stroke="#E8E8EA" stroke-width="0.333333"/>
<path d="M11.9183 15.1749C12.0869 15.2058 11.9275 15.5475 11.7883 15.5186C11.7243 15.4 11.8046 15.2347 11.9183 15.1749Z" fill="white" stroke="#2F2F2E" stroke-width="0.333333"/>
<path d="M21.5518 15.166C21.61 15.224 21.61 15.224 21.5518 15.166Z" fill="white" stroke="#7E877B" stroke-width="0.333333"/>
<path d="M21.2549 15.2635C21.3131 15.3165 21.3131 15.3165 21.2549 15.2635Z" fill="white" stroke="#4B4F4C" stroke-width="0.333333"/>
<path d="M22.8495 15.3382C22.7774 15.2756 22.7774 15.2756 22.8495 15.3382Z" fill="white" stroke="#52504E" stroke-width="0.333333"/>
<path d="M22.8496 15.3383C23.1756 15.2167 22.8933 15.656 22.8496 15.3383Z" fill="white" stroke="#3F4138" stroke-width="0.333333"/>
<path d="M21.6523 15.4668C21.7126 15.5198 21.7126 15.5198 21.6523 15.4668Z" fill="white" stroke="#5B5E58" stroke-width="0.333333"/>
<path d="M23.1758 15.4529C23.4906 15.2985 23.2042 15.7686 23.1758 15.4529Z" fill="white" stroke="#4C4945" stroke-width="0.333333"/>
<path d="M26.4777 15.4439C26.8138 15.4599 27.1652 15.3971 27.4882 15.5127L27.5471 15.694C27.1927 15.5973 26.827 15.6701 26.4746 15.7298C26.4756 15.6581 26.4777 15.5157 26.4777 15.4439Z" fill="white" stroke="#E1E3E5" stroke-width="0.333333"/>
<path d="M22.2837 15.5635C22.3378 15.6244 22.3378 15.6244 22.2837 15.5635Z" fill="white" stroke="#6C7A71" stroke-width="0.333333"/>
<path d="M23.5967 15.5525C23.9136 15.4001 23.6221 15.8673 23.5967 15.5525Z" fill="white" stroke="#333933" stroke-width="0.333333"/>
<path d="M24.377 15.6371C24.4978 15.5674 24.6278 15.4937 24.7761 15.5186C25.3316 15.4837 25.8923 15.5435 26.4448 15.4598C26.4346 15.5674 26.4275 15.676 26.4214 15.7846C25.7785 15.5734 25.0523 15.7368 24.377 15.6371Z" fill="white" stroke="#F4F4F3" stroke-width="0.333333"/>
<path d="M21.9639 15.6501C22.2868 15.5086 21.9781 15.9649 21.9639 15.6501Z" fill="white" stroke="#515453" stroke-width="0.333333"/>
<path d="M22.2676 15.7627C22.3176 15.8237 22.3176 15.8237 22.2676 15.7627Z" fill="white" stroke="#4B4E4A" stroke-width="0.333333"/>
<path d="M22.6808 15.7526C22.8291 15.7197 22.888 15.7705 22.8565 15.904C22.7112 15.9339 22.6523 15.8831 22.6808 15.7526Z" fill="white" stroke="#333130" stroke-width="0.333333"/>
<path d="M6.35883 17.1084C6.88188 16.7936 7.28914 16.3314 7.62226 15.8334C7.42625 16.183 7.25664 16.5984 6.86766 16.7807L6.95805 16.8852C6.65742 16.8803 6.46851 17.1323 6.22273 17.2588C6.01859 17.3723 5.80227 17.463 5.61133 17.5994C5.62047 17.5526 5.63976 17.46 5.64992 17.4142C5.87945 17.2966 6.11203 17.1851 6.35883 17.1084Z" fill="white" stroke="#E8E8EA" stroke-width="0.333333"/>
<path d="M21.5537 15.9658C21.613 16.0168 21.613 16.0168 21.5537 15.9658Z" fill="white" stroke="#4F504C" stroke-width="0.333333"/>
<path d="M23.9202 15.9858C24.0136 15.8802 24.1213 15.8693 24.2411 15.9529V16.0077C24.1335 16.0595 24.0248 16.0725 23.9131 16.0476L23.9202 15.9858Z" fill="white" stroke="#141519" stroke-width="0.333333"/>
<path d="M26.3594 15.9459C26.923 15.9738 27.5273 15.8204 28.0484 16.0993C27.9417 16.1152 27.8341 16.1272 27.7264 16.1362C27.5771 15.9579 27.2673 15.9529 27.1221 16.1381C26.9921 16.1362 26.8631 16.1312 26.7352 16.1252C26.6021 16.0943 26.4274 16.0834 26.3594 15.9459Z" fill="white" stroke="#CDCBD1" stroke-width="0.333333"/>
<path d="M7.02197 16.0924C7.03117 16.0834 7.04853 16.0644 7.0567 16.0544" stroke="black" stroke-width="0.333333"/>
<path d="M21.7568 16.0674C21.814 16.1213 21.814 16.1213 21.7568 16.0674Z" fill="white" stroke="#524D4F" stroke-width="0.333333"/>
<path d="M23.913 16.0475C24.0247 16.0724 24.1334 16.0595 24.2411 16.0077C25.0637 16.0595 25.9047 16.0694 26.7354 16.1252C26.8634 16.1312 26.9924 16.1362 27.1224 16.1382C27.3235 16.1471 27.5256 16.1541 27.7267 16.1362C27.8343 16.1272 27.942 16.1153 28.0486 16.0993C28.2121 16.0734 28.3767 16.0346 28.5432 16.0675C27.8526 16.2796 27.1244 16.2209 26.4145 16.3015C25.8356 16.3444 25.2607 16.2388 24.6829 16.2448C24.239 16.2458 23.7972 16.2029 23.3564 16.1681C23.525 16.1611 23.6936 16.1481 23.8622 16.1302L23.913 16.0475Z" fill="white" stroke="#040305" stroke-width="0.333333"/>
<path d="M27.1221 16.1382C27.2673 15.9529 27.5771 15.9579 27.7264 16.1362C27.5253 16.1541 27.3232 16.1472 27.1221 16.1382Z" fill="white" stroke="#F4F4F3" stroke-width="0.333333"/>
<path d="M22.0484 16.1193C22.3307 16.2169 22.6537 16.4679 22.9472 16.2647L22.9564 16.2876C22.9828 16.4948 23.2387 16.4988 23.3667 16.3753C23.4083 16.3693 23.4906 16.3573 23.5312 16.3514C23.5404 16.4041 23.5576 16.5087 23.5668 16.5605C23.8268 16.5615 24.0888 16.5426 24.3366 16.4559C24.4778 16.437 24.62 16.446 24.7621 16.4828L24.6809 16.5486C24.3925 16.6213 24.0989 16.6701 23.8075 16.7259C23.6836 16.7358 23.5607 16.7408 23.4378 16.7388L23.45 16.702L23.4977 16.5486C22.9533 16.5745 22.4221 16.4589 21.9072 16.3015C21.9428 16.2557 22.0128 16.1651 22.0484 16.1193Z" fill="white" stroke="#2B2B2A" stroke-width="0.333333"/>
<path d="M22.9561 16.2876C23.0861 16.2487 23.2567 16.2956 23.3664 16.3752C23.2384 16.4988 22.9825 16.4948 22.9561 16.2876Z" fill="white" stroke="#1A191B" stroke-width="0.333333"/>
<path d="M18.614 16.3055C19.1157 16.8614 19.6865 17.3544 20.3548 17.709C21.3115 18.2131 22.384 18.492 23.4677 18.5298C24.203 18.4999 24.8804 18.1473 25.6157 18.1125C25.3689 17.9899 25.0907 17.985 24.8215 17.975C25.0937 17.9501 25.3842 17.9481 25.6543 18.0238L25.7508 18.0497C25.7945 18.0826 25.8818 18.1493 25.9245 18.1822C26.1276 18.1533 26.3297 18.1244 26.5339 18.0965C26.5572 18.1463 26.605 18.2449 26.6283 18.2937C25.4502 18.495 24.3533 18.9791 23.2575 19.4283C21.5086 20.1544 19.9374 21.2133 18.2931 22.1307C15.8211 23.4714 13.0382 24.4127 10.1823 24.3131C10.0797 24.2554 9.97715 24.1986 9.87457 24.1418C10.0127 24.094 10.2493 24.1478 10.2666 23.9545C10.1793 23.9635 10.0919 23.9735 10.0046 23.9844C10.0036 23.9476 10.0015 23.8739 10.0005 23.837C9.75879 23.573 9.37488 23.5402 9.07324 23.3668C9.17785 23.317 9.28246 23.2662 9.39012 23.2224C10.7785 23.3629 12.1912 23.1686 13.5044 22.7134C14.97 22.1486 16.2629 21.2163 17.3414 20.1007C17.8452 19.6385 18.1722 19.0219 18.6943 18.5796C18.5734 18.4701 18.4546 18.3595 18.3368 18.2469C18.2941 18.1822 18.2088 18.0527 18.1661 17.9879C18.1539 17.8067 18.2535 17.6752 18.415 17.5955C19.1229 18.1882 19.9232 18.6812 20.8098 18.9701C20.822 18.9741 20.8454 18.982 20.8565 18.986C21.1348 19.0777 21.4222 19.1414 21.7086 19.2032C22.0712 19.2809 22.4439 19.2669 22.8065 19.1962C22.3454 18.987 21.8264 18.9332 21.3694 18.7061C21.2679 18.6563 21.1673 18.6095 21.0657 18.5617C20.045 18.1115 19.1909 17.3734 18.4779 16.5386C18.5125 16.4809 18.5805 16.3643 18.614 16.3055Z" fill="white" stroke="#E9E9EB" stroke-width="0.333333"/>
<path d="M23.5312 16.3513C23.7933 16.428 24.0665 16.432 24.3366 16.4559C24.0888 16.5426 23.8268 16.5615 23.5668 16.5605C23.5577 16.5087 23.5404 16.4041 23.5312 16.3513Z" fill="white" stroke="#040506" stroke-width="0.333333"/>
<path d="M24.7619 16.4829C25.4566 16.4271 26.196 16.4151 26.9029 16.4878C26.5504 16.5546 26.1554 16.456 25.8375 16.6502C25.4485 16.6462 25.0696 16.5416 24.6807 16.5486L24.7619 16.4829Z" fill="white" stroke="#CDCDD3" stroke-width="0.333333"/>
<path d="M24.6806 16.5486C25.0696 16.5416 25.4484 16.6462 25.8374 16.6502C26.3645 16.6691 26.8926 16.6452 27.4197 16.686C26.2162 16.7189 25.0106 16.7518 23.8071 16.7259C24.0986 16.6701 24.3921 16.6213 24.6806 16.5486Z" fill="white" stroke="#040305" stroke-width="0.333333"/>
<path d="M8.77295 16.675C8.79919 16.6997 8.79919 16.6997 8.77295 16.675Z" fill="white" stroke="#C3C8C4" stroke-width="0.333333"/>
<path d="M20.6484 16.7617C20.7036 16.8177 20.7036 16.8177 20.6484 16.7617Z" fill="white" stroke="#B3ACB0" stroke-width="0.333333"/>
<path d="M27.3193 16.9669C28.5909 16.7308 29.896 16.6362 31.1858 16.7786C30.8537 16.8633 30.5074 16.8055 30.1682 16.8214C29.3557 16.7995 28.5574 16.9738 27.753 17.0535C27.6687 17.0635 27.5001 17.0824 27.4158 17.0914C27.3914 17.0605 27.3427 16.9987 27.3193 16.9669Z" fill="white" stroke="#0A0A0B" stroke-width="0.333333"/>
<path d="M16.5819 16.7598C16.6764 16.8514 16.7718 16.943 16.8673 17.0357C16.8744 17.2957 16.7993 17.5636 16.6144 17.7588C16.6977 17.8186 16.7972 17.7867 16.8896 17.7738C16.7901 17.9391 16.6022 18.1304 16.7211 18.3336C16.8683 18.0238 17.0897 17.7489 17.1913 17.4182C17.2776 17.5238 17.4614 17.5835 17.4726 17.73C17.4086 17.9202 17.2929 18.0876 17.1954 18.2619C16.9475 18.728 16.6307 19.1584 16.3118 19.5797C15.5622 20.4662 14.575 21.1246 13.5604 21.6874C11.8379 22.568 9.82801 22.829 7.91355 22.5859C6.21746 22.4106 4.59957 21.8319 3.01418 21.2472C2.63637 21.1326 2.26973 20.9065 1.86551 20.9304C1.85129 20.8955 1.82387 20.8248 1.80965 20.79C1.67152 20.8238 1.53543 20.8149 1.40137 20.7631C1.49379 20.7531 1.68066 20.7312 1.77309 20.7202C1.88887 20.6107 1.59738 20.5788 1.5334 20.526C1.77512 20.525 1.98941 20.6475 2.2291 20.6575C2.11738 20.6485 1.95387 20.6535 1.95184 20.7939C2.0534 20.8268 2.15496 20.8597 2.25754 20.8926C3.07004 21.1237 3.84293 21.4872 4.67879 21.6426C6.37184 22.0869 8.14715 22.3409 9.89504 22.0909C10.4201 22.0251 10.9411 21.9205 11.4449 21.7592C12.1436 21.5042 12.8546 21.2342 13.4548 20.79C14.5801 19.8965 15.6323 18.8536 16.2772 17.5676C16.4103 17.3106 16.5474 17.0506 16.5819 16.7598Z" fill="white" stroke="#090A09" stroke-width="0.333333"/>
<path d="M24.6729 16.8813C25.5097 16.8036 26.3669 16.7697 27.1997 16.9052C27.2292 16.9211 27.2891 16.952 27.3196 16.9669C27.3429 16.9988 27.3917 17.0606 27.4161 17.0914C27.5003 17.0825 27.6689 17.0635 27.7532 17.0536C27.5979 17.1791 27.3825 17.1412 27.1997 17.1691L27.1926 17.1203C27.1875 17.0795 27.1754 16.9968 27.1703 16.955C26.5873 17.0227 25.9982 17.0486 25.4122 17.0048C25.1685 16.949 24.9156 16.942 24.6729 16.8813Z" fill="white" stroke="#E8E8EA" stroke-width="0.333333"/>
<path d="M23.2201 17.0706C23.2851 17.0108 23.3481 16.948 23.408 16.8833C24.0742 16.95 24.7425 16.9879 25.4118 17.0048C25.9978 17.0487 26.5869 17.0228 27.1699 16.955C27.1749 16.9969 27.1871 17.0795 27.1922 17.1204C27.0612 17.1353 26.9302 17.1453 26.7992 17.1493C25.7226 17.2529 24.6471 17.0975 23.5725 17.0556C23.4923 17.1383 23.4121 17.222 23.3328 17.3056C23.1185 17.2339 22.888 17.221 22.6646 17.2349C22.7285 17.1732 22.7915 17.1104 22.8545 17.0477C22.9459 17.0526 23.1287 17.0646 23.2201 17.0706Z" fill="white" stroke="#040305" stroke-width="0.333333"/>
<path d="M8.7759 17.2378C9.17808 17.3603 9.56301 17.1601 9.92863 17.0197C9.91746 17.0884 9.89613 17.2248 9.88496 17.2936C8.99731 17.9181 7.93598 18.2628 6.86043 18.4072C6.58215 18.3116 6.28762 18.2897 5.99512 18.3076C6.33434 18.2269 6.6766 18.1572 7.01785 18.0915C7.06559 18.213 7.20269 18.1761 7.30223 18.199C7.23012 18.1642 7.08488 18.0944 7.01277 18.0596C7.64348 17.9311 8.20207 17.5814 8.72715 17.2308L8.7759 17.2378Z" fill="white" stroke="#1D1A19" stroke-width="0.333333"/>
<path d="M23.5727 17.0555C24.6472 17.0974 25.7228 17.2528 26.7993 17.1492C26.321 17.2159 25.8365 17.3046 25.3561 17.3215C24.9062 17.188 24.4319 17.2209 23.9678 17.203C23.7951 17.186 23.6286 17.2338 23.4772 17.3115C23.4407 17.3095 23.3686 17.3066 23.333 17.3056C23.4122 17.2219 23.4925 17.1382 23.5727 17.0555Z" fill="white" stroke="#4D4B4C" stroke-width="0.333333"/>
<path d="M23.4771 17.3116C23.6284 17.2339 23.7949 17.1861 23.9676 17.203C24.4317 17.2209 24.906 17.188 25.356 17.3215C24.7303 17.3365 24.1017 17.3524 23.4771 17.3116Z" fill="white" stroke="#110D11" stroke-width="0.333333"/>
<path d="M25.6758 17.7778C27.7284 17.5816 29.8287 17.1243 31.8721 17.6503C32.2672 17.6851 32.646 17.8027 33.037 17.8644C32.8938 18.0099 32.6694 17.8764 32.4947 17.8674C31.2546 17.7369 29.9963 17.5268 28.7501 17.71C27.8106 17.7668 26.862 17.8385 25.9409 18.0348C25.8525 17.9491 25.7631 17.8635 25.6758 17.7778Z" fill="white" stroke="#1F1E1E" stroke-width="0.333333"/>
<path d="M17.8158 17.8555C17.9783 17.9989 18.1469 18.1374 18.3368 18.2469C18.4546 18.3595 18.5734 18.4701 18.6943 18.5796C18.1723 19.0219 17.8452 19.6385 17.3415 20.1007C16.2629 21.2163 14.97 22.1486 13.5045 22.7134C12.1913 23.1686 10.7785 23.3629 9.39016 23.2224C9.29062 23.2154 9.09156 23.2005 8.99203 23.1925C9.32109 23.1188 9.65625 23.065 9.9782 22.9604C9.26422 22.8947 8.54414 22.8997 7.82812 22.8867C7.85047 22.8529 7.89617 22.7851 7.91852 22.7513C9.83703 22.9256 11.8277 22.6845 13.5776 21.8647C14.5973 21.3259 15.6027 20.7133 16.3797 19.8566C16.8936 19.3755 17.2399 18.7599 17.6523 18.1981C17.7061 18.0836 17.7609 17.969 17.8158 17.8555Z" fill="white" stroke="#050405" stroke-width="0.333333"/>
<path d="M16.5933 17.969C16.6214 17.9965 16.6214 17.9965 16.5933 17.969Z" fill="white" stroke="white" stroke-width="0.333333"/>
<path d="M23.4478 17.9749C23.8621 17.961 24.2785 17.9451 24.6949 17.955C24.3121 18.1024 23.8459 18.0646 23.4478 17.9749Z" fill="white" stroke="#1E1D1D" stroke-width="0.333333"/>
<path d="M9.06836 18.0516C9.12249 18.1086 9.12249 18.1086 9.06836 18.0516Z" fill="white" stroke="#40423B" stroke-width="0.333333"/>
<path d="M26.6289 18.2937C27.9573 18.0457 29.3305 17.9561 30.6752 18.1254C31.1037 18.1294 31.5202 18.2439 31.9467 18.2718L31.9691 18.3286C31.9884 18.3764 32.0259 18.472 32.0452 18.5198C31.9782 18.5149 31.8452 18.5049 31.7791 18.5009C31.6898 18.3455 31.4907 18.3764 31.4054 18.5159C30.013 18.3525 28.5931 18.4053 27.221 18.6922C26.3953 18.8157 25.6021 19.0767 24.8373 19.3994C23.5546 19.8984 22.3389 20.5489 21.1801 21.28C19.5013 22.3976 17.793 23.5322 15.845 24.1458C13.8859 24.7325 11.7541 24.8929 9.76953 24.3321C9.87312 24.3281 10.0803 24.3181 10.1829 24.3131C13.0388 24.4127 15.8216 23.4714 18.2937 22.1307C19.938 21.2133 21.5091 20.1544 23.258 19.4283C24.3539 18.979 25.4508 18.4949 26.6289 18.2937Z" fill="white" stroke="#080808" stroke-width="0.333333"/>
<path d="M16.4905 18.0267C16.4946 18.204 16.5281 18.3564 16.7099 18.4341C16.5139 18.474 16.4864 18.7021 16.3676 18.8306C15.485 19.9621 14.2389 20.7829 12.9033 21.3128C13.4294 20.9971 14.0134 20.773 14.4999 20.3964C15.3022 19.741 16.0579 18.97 16.4905 18.0267Z" fill="white" stroke="#F4F4F3" stroke-width="0.333333"/>
<path d="M4.53711 18.3276C4.87836 18.22 5.27344 18.215 5.61367 18.3246C5.25516 18.3415 4.89562 18.3515 4.53711 18.3276Z" fill="white" stroke="#FDFFFE" stroke-width="0.333333"/>
<path d="M31.9688 18.3285C32.1607 18.2877 32.3151 18.3305 32.4339 18.459C32.3059 18.4869 32.1759 18.5128 32.0449 18.5198C32.0256 18.472 31.988 18.3763 31.9688 18.3285Z" fill="white" stroke="#040305" stroke-width="0.333333"/>
<path d="M32.4339 18.4591C32.4928 18.2947 32.7518 18.4949 32.8747 18.5248C32.769 18.5846 32.6634 18.6464 32.5598 18.7091C32.31 18.5975 31.9901 18.6852 31.7788 18.5009C31.8448 18.5049 31.9779 18.5149 32.0449 18.5198C32.1759 18.5129 32.3059 18.487 32.4339 18.4591Z" fill="white" stroke="#040506" stroke-width="0.333333"/>
<path d="M31.4053 18.5158C31.4906 18.3763 31.6897 18.3455 31.779 18.5009C31.6602 18.5726 31.5363 18.5776 31.4053 18.5158Z" fill="white" stroke="#3C3C37" stroke-width="0.333333"/>
<path d="M21.0661 18.5616C21.1676 18.6095 21.2682 18.6563 21.3697 18.7061C21.8268 18.9332 22.3458 18.987 22.8069 19.1962C22.4443 19.2669 22.0715 19.2808 21.709 19.2031C21.5414 18.9621 21.125 18.8784 20.8569 18.986C20.8457 18.982 20.8223 18.974 20.8101 18.97L20.8152 18.8336C20.7624 18.8296 20.6578 18.8226 20.605 18.8186L20.6141 18.728C20.6933 18.734 20.8518 18.7459 20.931 18.7519C20.9645 18.7041 21.0315 18.6095 21.0661 18.5616Z" fill="white" stroke="#353737" stroke-width="0.333333"/>
<path d="M22.2725 18.5537C22.4035 18.473 22.4888 18.4939 22.5294 18.6144C22.3974 18.6951 22.3121 18.6752 22.2725 18.5537Z" fill="white" stroke="#CAC8CC" stroke-width="0.333333"/>
<path d="M32.8744 18.5248C33.4868 18.6194 34.0271 18.9441 34.5878 19.1872C34.9595 19.3525 35.3139 19.5518 35.6633 19.7579L35.644 19.8217C34.7716 19.4023 33.8839 18.9561 32.915 18.8057C32.9668 18.7668 33.0684 18.6871 33.1202 18.6473C32.9404 18.713 32.7495 18.7369 32.5596 18.7091C32.6632 18.6463 32.7688 18.5845 32.8744 18.5248Z" fill="white" stroke="#080808" stroke-width="0.333333"/>
<path d="M5.78125 18.8227C5.78328 18.6583 6.32055 18.6663 6.29008 18.8207C6.16211 18.8207 5.9082 18.8217 5.78125 18.8227Z" fill="white" stroke="#171719" stroke-width="0.333333"/>
<path d="M24.9153 19.4532C26.5129 18.7639 28.2953 18.6643 30.0158 18.743C30.2931 18.7768 30.5673 18.8286 30.8466 18.8456C30.7024 18.9133 30.549 18.9571 30.3936 18.991C30.5358 19.0687 30.682 19.1474 30.7592 19.2968C29.3414 19.2669 27.9094 19.3775 26.5444 19.7719C25.3602 20.1196 24.2531 20.6744 23.1817 21.2721C22.3285 21.798 21.5282 22.4006 20.734 23.0063C21.4531 22.5311 22.1224 21.9853 22.8556 21.5291C24.4431 20.5399 26.2488 19.8417 28.1369 19.7122C29.4521 19.513 30.7958 19.6524 32.0806 19.9642C31.914 20.019 31.7403 20.0439 31.5677 20.0608C31.716 20.0947 31.8632 20.1305 32.0115 20.1684C31.9231 20.1873 31.8338 20.2052 31.7454 20.2222C31.2153 20.2381 30.6912 20.1405 30.161 20.1505C28.7158 20.2202 27.234 20.3467 25.9005 20.9463C24.6371 21.4424 23.4803 22.1566 22.3549 22.8987C21.7649 23.318 21.1616 23.7235 20.6142 24.1966C22.5459 22.819 24.5629 21.4464 26.9029 20.8368C28.7168 20.4184 30.6384 20.4513 32.4249 20.9782C32.6199 21.039 32.8149 21.1007 33.016 21.1426C33.0403 21.1784 33.0901 21.2502 33.1145 21.286C32.4878 21.0987 31.8267 21.1077 31.1838 21.022C29.4308 21.022 27.6189 21.1246 25.996 21.8368C24.9448 22.2731 23.9627 22.8489 23.008 23.4575C21.0021 24.6907 18.7485 25.6559 16.3577 25.7874C15.4751 25.8043 14.5692 25.871 13.713 25.61C12.8944 25.355 12.0656 25.1319 11.2603 24.8381C13.8745 25.0303 16.5019 24.2723 18.7261 22.9405C19.6412 22.3937 20.5339 21.8109 21.4216 21.2213C22.5317 20.5369 23.6925 19.9234 24.9153 19.4532Z" fill="white" stroke="#040506" stroke-width="0.333333"/>
<path d="M19.0498 18.8315C19.5069 19.0447 19.9121 19.3505 20.3732 19.5577C20.6037 19.6722 20.8516 19.746 21.1095 19.7699C20.879 19.9402 20.5875 20.002 20.3549 20.1693C19.2093 20.9532 18.0728 21.7591 16.8287 22.3876C16.6895 22.4504 16.5524 22.5161 16.4184 22.5868C14.8482 23.2891 13.1196 23.7692 11.3809 23.57C12.3934 23.3518 13.3847 23.0211 14.3343 22.6117C15.7501 21.9274 17.0227 20.9751 18.1063 19.8525C18.4628 19.5497 18.7015 19.1413 19.0498 18.8315Z" fill="white" stroke="#040305" stroke-width="0.333333"/>
<path d="M30.8465 18.8456C32.1821 19.0209 33.4557 19.4801 34.649 20.0817C34.6175 20.0887 34.5546 20.1017 34.5221 20.1086C33.3216 19.6813 32.0571 19.3596 30.7764 19.3197L30.7592 19.2968C30.682 19.1474 30.5357 19.0687 30.3936 18.991C30.5489 18.9571 30.7023 18.9133 30.8465 18.8456Z" fill="white" stroke="#1B1819" stroke-width="0.333333"/>
<path d="M0.0101561 18.9362C1.42289 19.0069 2.83664 19.1194 4.22906 19.3734C4.55406 19.4352 4.89531 19.4043 5.20914 19.5229C5.12586 19.5886 5.04359 19.6533 4.96031 19.7191C4.01883 19.5488 3.06922 19.4282 2.12875 19.2549C1.42594 19.1194 0.708906 19.0995 0 19.0099L0.0101561 18.9362Z" fill="white" stroke="#1B1917" stroke-width="0.333333"/>
<path d="M20.8569 18.986C21.1251 18.8784 21.5415 18.9621 21.709 19.2031C21.4226 19.1414 21.1352 19.0776 20.8569 18.986Z" fill="white" stroke="#040305" stroke-width="0.333333"/>
<path d="M0.363281 19.8964C0.593828 19.7699 0.871094 19.8367 1.12297 19.8287C1.76281 19.8755 2.40977 19.8835 3.03945 20.01C3.4843 20.0947 3.90883 19.8865 4.35672 19.9741C4.21758 19.9731 4.07742 19.9701 3.93828 19.9662C3.89258 20.0229 3.86719 20.1036 3.94742 20.1435C4.40852 20.1166 4.86656 20.2381 5.32766 20.271C5.11945 20.5658 4.70914 20.527 4.41563 20.6933C3.99617 20.5807 3.57773 20.4662 3.15117 20.3855C3.06586 20.523 2.88813 20.4642 2.75508 20.4861C2.9257 20.5041 3.05977 20.4552 3.15625 20.3407C2.22289 20.2112 1.31188 19.9223 0.363281 19.8964Z" fill="white" stroke="#191718" stroke-width="0.333333"/>
<path d="M32.0803 19.9641C32.7851 20.1504 33.5529 20.2868 34.145 20.7231C33.3447 20.505 32.5251 20.3625 31.7086 20.2291L31.7451 20.2221C31.8335 20.2052 31.9229 20.1872 32.0112 20.1683C31.8629 20.1305 31.7157 20.0946 31.5674 20.0607C31.74 20.0438 31.9137 20.0189 32.0803 19.9641Z" fill="white" stroke="#3A353D" stroke-width="0.333333"/>
<path d="M2.44765 20.1016C2.3989 19.8954 2.90773 20.0358 2.63758 20.1344C2.58984 20.1265 2.49539 20.1095 2.44765 20.1016Z" fill="white" stroke="#464846" stroke-width="0.333333"/>
<path d="M8.05078 20.0448C8.1432 19.9771 8.39711 19.9562 8.41438 20.0976C8.32094 20.1584 8.07109 20.1783 8.05078 20.0448Z" fill="white" stroke="#D3D1D5" stroke-width="0.333333"/>
<path d="M2.73193 20.6475C2.89342 20.6276 3.05693 20.6196 3.22146 20.6246C3.37279 20.7531 3.66021 20.7182 3.70998 20.9553C3.39209 20.8248 3.05693 20.7501 2.73193 20.6475Z" fill="white" stroke="#B4B1B7" stroke-width="0.333333"/>
<path d="M2.34717 20.7411C2.48834 20.6664 2.58178 20.6863 2.6285 20.8018C2.48834 20.8745 2.3949 20.8536 2.34717 20.7411Z" fill="white" stroke="#A4A2A7" stroke-width="0.333333"/>
<path d="M3.73828 20.767C4.19227 20.7201 4.63711 20.9293 5.09414 20.9303C4.6625 21.1694 4.18211 20.8277 3.73828 20.767Z" fill="white" stroke="#040305" stroke-width="0.333333"/>
<path d="M11.6045 21.0409C11.6617 21.0949 11.6617 21.0949 11.6045 21.0409Z" fill="white" stroke="#484C48" stroke-width="0.333333"/>
<path d="M2.90674 21.3995C3.17385 21.5031 3.54557 21.4513 3.7101 21.7282C3.42775 21.6655 3.11189 21.6207 2.90674 21.3995Z" fill="white" stroke="#D2D1D7" stroke-width="0.333333"/>
<path d="M9.85352 21.6157C9.4818 21.6964 9.11211 21.5948 8.78711 21.4195C9.02273 21.4274 9.25633 21.4145 9.48891 21.3806C9.60469 21.4663 9.73062 21.538 9.85352 21.6157Z" fill="white" stroke="#F9F8FA" stroke-width="0.333333"/>
<path d="M12.3135 21.5957C12.3135 21.4563 12.5603 21.3746 12.6771 21.4373C12.6964 21.5897 12.4293 21.6525 12.3135 21.5957Z" fill="white" stroke="#343534" stroke-width="0.333333"/>
<path d="M9.13379 21.9872C9.93715 21.8149 10.7578 21.6974 11.5611 21.5181C11.5104 21.5918 11.42 21.6565 11.4454 21.7591C10.9416 21.9205 10.4206 22.0251 9.89551 22.0908C9.64871 22.0141 9.38973 22.0052 9.13379 21.9872Z" fill="white" stroke="#F5F0F5" stroke-width="0.333333"/>
<path d="M26.2023 22.0957C28.0102 21.4084 30.0069 21.4333 31.8898 21.766C31.9183 21.7919 31.9762 21.8437 32.0046 21.8696C31.6735 21.772 31.3211 21.8069 30.9798 21.783C29.9988 21.8039 29.0126 21.8039 28.0447 21.9812C27.087 22.1256 26.1678 22.4404 25.268 22.783C25.1258 22.8348 24.9836 22.9026 24.8282 22.9006C24.7663 22.9574 24.7226 23.0231 24.6982 23.0988C24.7561 23.1157 24.8719 23.1506 24.9298 23.1675C24.9978 23.1247 25.1339 23.039 25.202 22.9962C25.1238 23.0739 24.9582 23.1337 25.0374 23.2691C26.1556 22.8348 27.3338 22.5201 28.5383 22.4414C28.6409 22.4344 28.8176 22.4753 28.8277 22.3298C28.6124 22.2551 28.3778 22.2691 28.1534 22.2621C28.4895 22.281 28.9029 22.1346 29.173 22.3926C29.5346 22.4354 29.9226 22.3388 30.2709 22.4454C29.17 22.4952 28.063 22.6287 27.0199 22.9982C25.7027 23.3817 24.6017 24.2134 23.4317 24.8858C22.5471 25.3998 21.567 25.7414 20.5677 25.9656C19.6505 26.1757 18.705 26.1947 17.7696 26.2564C17.1592 26.2564 16.5407 26.2614 15.9395 26.1439C18.0225 26.1558 20.0609 25.5183 21.8717 24.5352C22.865 24.0023 23.9141 23.5819 25.0059 23.2861C24.8485 23.1785 24.6677 23.2243 24.5123 23.306C24.5682 23.1964 24.5702 23.0739 24.5042 22.9703C24.3072 23.2562 23.8877 23.294 23.5658 23.3917C24.4585 22.9872 25.273 22.4254 26.2023 22.0957Z" fill="white" stroke="#040506" stroke-width="0.333333"/>
<path d="M2.85254 21.6038C3.2141 21.7352 3.56957 21.8956 3.95551 21.9474C4.04488 21.8787 4.14746 21.8418 4.26426 21.8378C4.14137 21.8588 4.03676 21.9106 3.95348 21.9942C4.73551 22.1596 5.52262 22.3488 6.29449 22.5391C6.5098 22.571 6.72715 22.5879 6.94449 22.6058C7.0298 22.6855 6.92418 22.7951 6.91402 22.8837C5.57543 22.5789 4.26629 22.1596 2.95918 21.7562C2.93176 21.7183 2.87895 21.6416 2.85254 21.6038Z" fill="white" stroke="#040305" stroke-width="0.333333"/>
<path d="M12.1055 21.6385C12.1606 21.6945 12.1606 21.6945 12.1055 21.6385Z" fill="white" stroke="#4C4D4B" stroke-width="0.333333"/>
<path d="M7.22031 22.7174L7.27008 22.6736C7.49047 22.7005 7.71188 22.7164 7.93328 22.7304L7.91906 22.7513C7.89672 22.7851 7.85102 22.8529 7.82867 22.8867C8.54469 22.8997 9.26477 22.8947 9.97875 22.9605C9.6568 23.065 9.32164 23.1188 8.99258 23.1925C8.28875 23.1378 7.59914 22.9814 6.90039 22.9077C7.00602 22.8429 7.1157 22.7842 7.22031 22.7174Z" fill="white" stroke="#121213" stroke-width="0.333333"/>
<path d="M12.3232 23.4255C12.6421 23.2731 12.3496 23.7383 12.3232 23.4255Z" fill="white" stroke="#424342" stroke-width="0.333333"/>
<path d="M15.7563 25.9467C16.1656 25.8909 16.582 25.8939 16.9934 25.9348C16.5871 26.0264 16.1656 25.9945 15.7563 25.9467Z" fill="white" stroke="#DDDCDF" stroke-width="0.333333"/>
</svg>
