<svg width="284" height="199" viewBox="0 0 284 199" fill="none" xmlns="http://www.w3.org/2000/svg">
<path d="M82.5835 18.7368C110.225 -2.02328 150.229 -5.6499 181.967 8.44589C197.603 15.5054 211.579 26.0986 221.612 39.5822C232.2 53.368 238.471 69.9358 240.434 86.8523C239.188 88.5804 239.619 90.7036 239.676 92.6642C239.66 99.034 239.587 105.412 239.692 111.774C239.904 104.606 239.35 97.4067 240.026 90.2542C240.181 90.1147 240.491 89.828 240.645 89.6807C241.517 96.7635 241.655 104.141 241.167 111.34C241.354 112.487 240.401 113.943 238.935 113.114C238.422 110.983 238.446 108.783 238.414 106.613C238.072 106.946 237.388 107.605 237.046 107.938C237.648 100.274 238.292 92.4549 236.777 84.8452C236.272 85.7596 235.775 86.6741 235.319 87.604C232.86 68.5332 225.066 49.7879 211.473 35.4054C196.952 19.6047 176.461 8.73261 154.562 5.85766C144.585 4.53255 134.38 4.75727 124.469 6.4156C101.95 10.3522 81.199 22.4642 67.2073 39.6984C51.9207 58.0253 44.6887 81.7998 45.5764 105.047C45.6986 108.589 46.2524 112.099 46.2687 115.648C45.8044 115.881 44.8679 116.33 44.4036 116.563C43.4996 116.803 42.6038 117.09 41.6835 117.268C39.1914 99.7004 40.47 81.4511 46.9853 64.7516C53.688 46.4945 66.3277 30.3064 82.5835 18.7368Z" fill="white" stroke="#0C0C0C" stroke-width="0.333333"/>
<path d="M121.653 30.161C132.242 22.8189 146.247 23.2139 158.702 24.2749C157.104 24.7938 155.4 24.6312 153.753 24.6389C150.19 24.546 146.693 25.2972 143.204 25.8239C142.62 24.3833 140.81 25.2508 139.634 25.0881C139.569 25.3127 139.423 25.7542 139.35 25.9788C139.853 24.6699 142.823 24.6854 143.18 26.1104C134.441 27.8376 126.578 32.5852 119.965 38.1925C113.652 43.8927 108.013 50.3907 104.037 57.7948C102.933 59.8394 101.797 61.8841 100.791 63.9907C99.2657 67.0035 98.0324 70.1479 96.6935 73.2381C93.959 79.6199 91.9062 86.2263 89.9587 92.8559C86.989 101.135 83.2727 109.314 77.6576 116.3C75.1909 118.646 73.5113 121.853 70.3305 123.425C71.3123 123.595 72.3023 123.348 73.2922 123.502C71.8641 124.354 70.4766 125.261 69.1296 126.213C67.661 124.416 65.1537 126.631 67.1741 128.033L65.3565 127.398C64.3179 128.227 62.9953 128.575 61.7944 129.117C49.3716 134.338 35.4963 132.448 22.3838 131.782C20.1767 131.402 17.7181 132.03 15.6733 131.038C19.8278 130.643 24.0066 131.046 28.1773 130.829C35.334 132.967 42.4258 128.877 48.4871 125.625C51.2135 124.006 53.3881 121.744 55.6682 119.622C55.7412 119.553 55.8792 119.405 55.9441 119.328C57.9645 116.385 60.4393 113.527 61.3157 110.05C61.8268 110.878 62.3462 111.707 62.9142 112.505C62.6302 111.939 62.0622 110.801 61.7782 110.235C63.2712 110.445 63.9203 109.879 63.7256 108.539L63.0927 108.586L63.4091 109.693C62.9466 109.825 62.0216 110.104 61.5672 110.235C61.8593 109.383 62.4517 107.672 62.7438 106.812C63.3118 106.874 63.8716 106.944 64.4396 107.021C63.969 105.983 63.0927 104.922 63.6607 103.714C65.105 97.5338 61.6159 91.3147 63.4416 85.1885C64.2043 81.7652 66.0543 78.4504 69.0241 76.3206C71.783 74.1597 75.2477 73.0987 78.2013 71.2167C80.4976 70.0395 80.2136 67.1119 80.6437 65.0053C80.7573 55.7579 86.8348 46.0458 96.588 43.6449C98.1135 43.2964 99.3631 42.3825 100.548 41.4453C99.0385 44.0786 97.5699 46.7351 95.9308 49.2909C94.4784 51.08 93.2856 53.0317 91.9224 54.8827L91.4599 54.9911C90.3888 57.6399 88.1574 59.6845 87.0052 62.3023C84.36 66.4691 84.2869 71.542 81.8608 75.7862C80.4002 78.0786 77.8929 79.5269 76.4081 81.8194C75.1017 83.0199 74.558 84.7083 73.633 86.1566C72.2455 89.2545 70.8417 92.639 71.3448 96.0623C71.7911 91.1907 74.2253 86.7994 76.7002 82.6172C78.1688 80.2317 80.9033 78.9228 82.4612 76.6149C84.5222 73.0445 84.8225 68.8777 86.2343 65.0905C86.7536 63.1388 88.6929 61.9073 89.0013 59.8782C90.6971 57.4695 92.4173 55.0763 94.0645 52.6367L94.8029 52.9155C95.0788 51.9396 95.2492 50.9018 95.947 50.0964C98.2677 46.9132 99.9473 43.2654 102.868 40.5082C108.224 36.1633 113.847 31.9966 120.428 29.4872C120.736 29.6576 121.353 29.9984 121.653 30.161Z" fill="white" stroke="#0A0A0B" stroke-width="0.333333"/>
<path d="M124.428 34.5985C134.172 27.6678 146.709 25.2318 158.584 26.3005C164.937 26.5048 171.121 28.1942 177.2 29.8837C178.936 30.4495 180.817 30.8267 182.286 31.9582C179.218 31.5339 176.352 30.2609 173.293 29.7816C159.763 27.3927 145.352 29.09 133.082 35.2664C124.331 40.327 116.339 47.1478 111.64 56.0824C109.84 59.092 108.12 62.1723 106.893 65.4648C107.103 66.0463 107.37 66.6121 107.701 67.1464C107.967 64.9226 109.033 62.9188 109.816 60.8522C110.631 63.3117 108.355 65.7084 108.314 68.2387C108.096 73.9751 107.862 79.7743 108.096 85.4871L108.46 85.4792C108.895 83.994 108.5 82.3674 108.629 80.8351L109.638 80.8194C109.574 82.666 109.509 84.5205 109.727 86.3672C110.534 84.4577 110.01 82.3674 109.88 80.3872L108.758 80.6308C109.525 76.0024 108.855 71.2248 110.058 66.6593C113.037 53.3478 122.91 41.7886 135.705 36.3273C141.268 34.0642 147.379 34.3156 153.264 33.8127L153.99 33.8756C149.437 34.4257 145.482 36.9716 141.211 38.4725C130.313 43.7845 120.779 52.4127 115.725 63.3117C114.902 65.1112 113.989 66.9028 113.667 68.8674C114.684 66.5021 115.822 64.1997 116.831 61.8344C122.757 51.3047 132.727 43.1952 144.158 38.8104C150.874 36.4059 158.1 36.4844 165.147 36.673C175.682 36.563 185.999 39.3133 195.687 43.1481L195.711 43.706C196.187 43.7688 197.132 43.8789 197.6 43.9339C195.743 45.0733 193.564 42.8102 191.626 42.4173C177.918 37.0424 162.386 38.4725 148.84 43.5802C141.009 47.2028 133.582 51.8626 127.955 58.3769C128.521 58.4005 129.651 58.4398 130.208 58.4555L129.021 57.4575C131.185 56.1845 132.743 54.1886 134.777 52.7584C141.001 48.2322 148.598 45.8591 156.202 44.7118C164.986 44.0674 173.995 43.8238 182.585 46.0241L184.239 46.0477C183.949 46.307 183.351 46.8099 183.053 47.0613C182.625 47.1164 181.769 47.2342 181.341 47.2971C182.843 47.5014 184.344 47.415 185.749 46.8177C193.483 48.5622 201.556 51.3518 207.166 57.0175C203.057 54.4715 199.013 51.5876 194.218 50.4089C184.078 47.9807 173.511 47.6821 163.153 48.6094C157.082 49.0259 151.092 50.401 145.619 53.0334C154.604 50.2753 164.106 52.2712 172.8 55.0451C180.05 57.929 186.823 62.2666 191.61 68.388L191.981 69.4096C187.872 66.2428 183.739 62.9738 178.887 60.915C168.32 56.1138 156.332 55.2494 144.9 56.7896C149.76 57.0332 154.628 57.1668 159.423 58.094C159.456 57.9211 159.512 57.5754 159.545 57.4025C160.521 57.7247 161.522 57.709 162.532 57.3711C161.466 57.709 160.425 58.1019 159.432 58.5891C168.586 60.1214 176.013 66.4707 181.801 73.205C184.627 77.409 188.236 81.448 189.43 86.4379C188.607 85.7385 188.284 84.7013 187.767 83.8054C181.85 72.5449 170.564 64.019 157.744 61.693C153.611 60.5143 149.236 61.5358 145.078 60.4828C153.926 62.2902 162.467 66.117 169.046 72.2542C172.187 75.2166 175.456 78.2891 177.289 82.2338C175.811 80.9844 174.633 79.4835 173.478 77.9591C165.632 70.3447 155.266 64.9462 144.15 63.8775C139.241 63.4925 133.76 64.2704 130.224 67.9165C125.534 72.4742 124.864 79.3028 124.412 85.3928C124.331 93.7851 125.55 102.17 124.831 110.554C124.298 117.249 122.49 123.803 119.705 129.94C117.162 135.378 113.505 140.242 109.348 144.603C100.048 153.003 88.3824 159.879 75.5061 160.877C76.5072 161.482 77.5405 162.04 78.485 162.739C88.6084 160.264 97.9083 155.211 106.191 149.106C112.73 143.825 118.744 137.586 122.038 129.853C122.434 128.541 123.935 126.985 122.652 125.72C122.95 125.814 123.54 126.003 123.838 126.097C124.533 122.145 126.64 118.483 126.583 114.389C129.619 118.004 129.215 123.276 127.81 127.504C126.672 130.254 125.324 132.902 123.75 135.448C123.112 136.415 122.474 137.389 121.788 138.324C109.735 154.111 90.005 163.942 69.8471 164.649C63.4857 164.46 57.1242 164.507 50.7628 164.484L50.779 164.24C58.311 164.232 65.8591 164.429 73.3749 163.965C71.7603 162.747 69.5726 163.116 67.9176 161.993C58.2383 162.896 48.7123 160.476 39.2025 159.219C41.81 157.066 45.1522 159.439 48.1795 159.085C43.7072 158.009 39.2267 156.964 34.7463 155.919C37.0793 154.606 40.3408 154.913 41.9957 152.587C46.1452 153.152 50.3511 153.027 54.5328 153.113C65.189 153.223 75.7806 150.52 85.2743 145.86C90.8203 142.741 96.3825 139.267 100.338 134.262C102.873 131.519 104.907 128.392 106.845 125.233C111.317 116.078 112.851 105.706 111.818 95.6475C111.293 92.7321 112.609 89.9976 112.52 87.1058C112.238 88.481 111.987 89.919 111.107 91.082C111.011 90.0133 110.825 87.8759 110.736 86.8072C110.082 88.2217 110.583 89.7775 110.696 91.247L111.939 90.9877C110.728 92.5829 111.188 94.6102 111.196 96.4333C111.673 103.505 111.204 110.751 108.468 117.398C107.168 120.031 105.658 122.561 104.391 125.209C98.7075 134.128 89.9 140.808 79.8897 144.595C67.1104 150.001 52.668 149.734 39.0733 148.233C39.7353 147.715 40.3892 147.204 41.0512 146.685C51.7316 147.778 62.6864 147.565 73.1085 144.87C83.9907 141.468 94.4854 135.362 100.75 125.807C108.831 114.742 109.453 100.645 109.218 87.5694C109.081 87.3887 108.815 87.0272 108.678 86.8465C108.355 94.9403 108.774 103.333 106.409 111.254C103.123 124.086 93.113 134.678 80.9553 140.242C70.84 145.114 59.207 146.332 48.0584 145.782C35.6182 145.397 24.2677 139.778 12.1907 137.562C10.1886 137.091 7.92017 137.374 6.2168 136.061C10.7215 136.792 15.3633 136.808 19.8276 137.931C22.419 138.403 24.8409 139.637 27.513 139.676C28.8047 139.063 26.7219 138.67 26.1971 138.599C27.0851 138.214 27.957 137.798 28.8127 137.358C25.5271 136.855 22.1849 136.383 19.0769 135.181C20.3282 135.228 21.6763 134.977 22.8146 135.629C27.0528 136.564 31.388 136.879 35.707 137.256C38.5567 137.444 41.4145 137.366 44.2642 137.232C45.2733 137.185 46.2905 137.146 47.2996 137.099C49.6246 136.957 51.9657 137.13 54.1776 137.884C48.1795 138.332 42.1491 138.183 36.1348 138.23L36.1187 138.623C40.9059 138.592 45.6931 138.772 50.4803 138.859C53.9597 139.055 57.3341 137.814 60.8135 138.152C61.3867 138.639 61.9599 139.126 62.5411 139.613C58.8599 139.927 55.211 140.478 51.554 140.925L51.6266 139.841C49.229 140.25 46.791 140.226 44.4176 139.739L44.8858 141.138C39.9775 140.493 34.8674 139.865 30.3385 137.892C28.8127 137.845 28.6836 139.094 29.402 140.147C38.8877 142.733 48.9949 142.159 58.6339 140.595C68.7249 139.385 78.5658 135.346 86.0977 128.635C97.4078 117.642 102.268 101.997 104.028 86.8937C104.488 84.4262 104.229 81.8252 104.867 79.4128C106.046 80.1043 105.489 82.3124 105.828 83.5933C105.029 80.3558 107.563 77.5426 106.562 74.2972L107.192 73.755C106.901 73.5665 106.328 73.1971 106.046 73.0164C106.094 70.8161 106.95 68.7338 107.362 66.5964C107.055 66.95 106.441 67.6494 106.135 67.9951C105.343 70.7926 104.157 73.7079 104.803 76.6468C104.956 76.246 105.271 75.4524 105.424 75.0595C105.586 74.9416 105.909 74.7059 106.07 74.588C107.483 76.4739 105.965 78.7292 103.802 78.9806C102.97 94.0837 99.6601 109.627 90.7073 122.27C84.4751 131.378 73.9723 137.091 63.1224 139.244C62.1617 138.442 61.0961 137.806 59.9174 137.35C65.8833 137.279 71.2033 134.285 76.2811 131.567C82.8847 127.465 88.9555 122.145 92.556 115.261C88.6972 120.683 83.9181 125.484 78.2186 129.099C78.3074 128.557 78.4769 127.48 78.5658 126.938C75.6595 128.046 72.5999 129.626 69.4031 128.659C76.8543 123.3 84.3217 117.351 88.6245 109.171C94.0334 98.7043 94.9375 86.8151 97.4724 75.5467L96.5279 75.5624C96.5036 76.3482 96.4552 77.9041 96.431 78.682L95.7529 78.1005C95.9224 81.9117 93.9607 85.4556 94.0979 89.2668C93.5086 88.536 92.9597 87.7345 92.0959 87.3023C94.2029 82.8546 95.1635 77.9905 97.1414 73.4957C97.1898 73.9515 97.2948 74.8709 97.3432 75.3345C98.1747 74.6351 98.3523 73.7315 97.876 72.6156C98.0617 72.4742 98.4331 72.1834 98.6187 72.042C102.809 57.3161 111.519 43.541 124.428 34.5985Z" fill="white" stroke="#050505" stroke-width="0.333333"/>
<path d="M118.839 30.7976C119.122 30.9803 119.405 31.1683 119.694 31.3563C118.543 31.7055 117.387 32.189 116.802 33.1667C116.582 32.9679 116.362 32.7691 116.148 32.5704C117.141 32.0923 118.066 31.5175 118.839 30.7976Z" fill="white" stroke="#F4F4F3" stroke-width="0.333333"/>
<path d="M154.193 33.0524C160.301 31.911 166.717 31.5686 172.887 32.5883C168.533 33.4329 164.02 32.8165 159.623 33.3568C161.042 33.6536 162.469 33.9199 163.906 34.1786C160.469 34.3536 157.005 34.4906 153.585 34.0949L152.792 34.034C153.136 33.7829 153.841 33.2959 154.193 33.0524Z" fill="white" stroke="#E2E1E3" stroke-width="0.333333"/>
<path d="M116.148 33.1667C116.007 33.5786 115.741 34.4178 115.608 34.8374C112.108 37.0597 109.647 40.3155 106.729 43.105C106.513 43.2915 106.081 43.6722 105.864 43.8587C104.692 45.1952 103.703 46.6949 102.306 47.8527C102.464 48.1091 102.772 48.6219 102.93 48.8784C102.631 48.7618 102.032 48.5365 101.741 48.4277C101.408 49.9584 99.937 50.8753 99.0724 52.1264C94.8659 58.0085 90.2021 63.844 88.2817 70.8062C86.9017 76.1289 83.8922 81.7313 78.3223 84.1013C79.2284 83.1067 80.3258 82.283 81.4897 81.5604L81.5894 80.9932L82.3875 80.9698L82.454 80.4182C83.3519 79.6178 83.9005 78.5533 84.7236 77.6985C85.2057 76.7583 85.663 75.8026 85.9041 74.7847L86.5442 75.0488C87.1012 70.612 89.3125 66.5248 90.9004 62.3599L91.3909 62.5153C91.6902 61.0312 92.7958 59.8812 93.4027 58.5136L93.835 58.3892C94.2091 57.4723 94.7495 56.6176 95.4561 55.8794C95.9632 55.0713 96.5202 54.2943 97.1021 53.5328C100.843 48.0547 105.524 43.2371 110.046 38.3263L110.653 38.2252L110.736 37.6502C110.977 37.4637 111.459 37.0752 111.709 36.881C113.105 35.56 114.593 34.3323 116.148 33.1667Z" fill="white" stroke="#F4F4F3" stroke-width="0.333333"/>
<path d="M86.7955 46.0184C91.377 43.2777 96.4984 40.7383 101.963 40.2738C100.057 41.5899 97.4883 41.4506 95.4594 42.5809C93.3077 43.5719 91.0088 44.4003 89.2662 45.9951C88.0309 47.2029 86.7955 48.4029 85.4947 49.541L85.3147 49.8894C81.985 53.2726 80.3488 57.9333 79.7352 62.4546C79.7679 64.8004 79.187 67.0766 78.778 69.3759C75.2437 71.8611 70.9649 73.2314 67.447 75.8018L67.3652 76.2895C67.1034 76.4521 66.588 76.785 66.3262 76.9553C65.9499 77.5592 65.1972 78.7592 64.8291 79.3631C64.1909 78.6199 63.5528 77.8921 62.9556 77.1334C64.5673 76.305 65.7372 74.9269 67.1689 73.874C69.9996 71.5514 73.5666 70.2121 76.34 67.8275C76.9045 62.9423 77.1254 57.7475 79.817 53.3887C81.5268 50.47 83.793 47.8223 86.7955 46.0184Z" fill="white" stroke="#191717" stroke-width="0.333333"/>
<path d="M146.882 53.4512C152.349 50.5441 158.333 49.0255 164.397 48.5656C169.453 50.6916 174.993 48.3139 180.162 49.5375C180.412 49.8065 180.911 50.3358 181.161 50.6048C180.371 50.7524 179.581 50.8825 178.791 50.9867C177.291 50.5007 175.783 50.4226 174.509 51.542C175.347 52.1668 176.194 52.7917 177.033 53.4338C176.21 53.6681 175.388 53.8937 174.573 54.1194C175.597 54.1714 176.468 54.5619 177.186 55.3082C176.396 55.395 174.815 55.5772 174.033 55.6727C165.348 52.6094 155.857 50.4052 146.882 53.4512Z" fill="white" stroke="#E8E8EA" stroke-width="0.333333"/>
<path d="M177.628 52.4836C178.457 52.398 179.286 52.291 180.114 52.1698C184.427 51.8988 189.381 52.669 192.383 55.5213C195.918 58.0884 199.951 60.1492 203.384 62.8233C203.443 63.1086 203.561 63.679 203.62 63.9643C200.779 61.8607 197.93 59.5574 194.142 58.773C191.622 57.8674 188.832 58.5092 186.245 57.9387C183.133 57.2898 179.895 56.8405 177.003 55.6354C175.532 54.8082 177.341 53.4391 177.628 52.4836Z" fill="white" stroke="#0C0B0C" stroke-width="0.333333"/>
<path d="M111.42 60.4106C111.42 61.99 111.42 61.99 111.42 60.4106Z" fill="white" stroke="#4E4A59" stroke-width="0.333333"/>
<path d="M106.652 67.741C106.958 67.393 107.568 66.6892 107.874 66.3334C107.464 68.4843 106.612 70.5799 106.564 72.7941C106.845 72.976 107.416 73.3477 107.705 73.5375L107.078 74.0831C108.075 77.3491 105.551 80.1801 106.347 83.4382C106.009 82.1492 106.564 79.9271 105.391 79.2312C104.756 81.6589 105.013 84.2764 104.555 86.7595C102.803 101.959 97.9662 117.703 86.7089 128.766C79.2121 135.52 69.4172 139.584 59.3732 140.802C49.7791 142.376 39.7191 142.953 30.2777 140.351C29.5626 139.292 29.6911 138.034 31.2098 138.082C35.7175 140.067 40.8038 140.699 45.6892 141.348L45.2232 139.94C47.5855 140.431 50.0122 140.454 52.3986 140.043L52.3263 141.134C55.9662 140.684 59.5981 140.13 63.2622 139.814C62.6837 139.323 62.1132 138.833 61.5427 138.343C58.0795 138.003 54.7208 139.252 51.2576 139.055C46.4927 138.968 41.7279 138.786 36.963 138.817L36.9791 138.422C42.9653 138.374 48.9676 138.525 54.9377 138.074C63.447 136.927 71.8438 134.191 78.8666 129.233C84.5394 125.595 89.2962 120.764 93.1371 115.307C89.5534 122.234 83.5109 127.588 76.9381 131.716C71.884 134.452 66.5888 137.465 60.6508 137.536C61.8239 137.995 62.8845 138.635 63.8407 139.442C74.64 137.275 85.0938 131.526 91.297 122.361C100.208 109.637 103.502 93.9952 104.33 78.7962C106.484 78.5432 107.994 76.2736 106.588 74.3757C106.427 74.4943 106.106 74.7316 105.945 74.8502C105.793 75.2456 105.479 76.0443 105.326 76.4476C104.684 73.49 105.865 70.5562 106.652 67.741Z" fill="white" stroke="#F4F4F3" stroke-width="0.333333"/>
<path d="M208.556 71.3345C210.31 70.7766 212.688 71.1015 213.077 72.3527C212.575 73.3115 210.802 73.6527 209.258 73.3115C208.736 72.6886 207.978 72.0386 208.556 71.3345Z" fill="white" stroke="#1D1F1D" stroke-width="0.333333"/>
<path d="M194.305 71.1041C196.261 70.7702 198.531 73.0535 197.415 75.3187C195.546 77.2952 193.622 72.7737 194.305 71.1041Z" fill="white" stroke="#040305" stroke-width="0.333333"/>
<path d="M202.516 78.3347C203.037 77.8453 203.599 77.4197 204.161 76.9941C204.946 77.5616 206.327 77.8595 205.907 79.2001C205.352 79.6682 204.79 80.1221 204.215 80.5477C203.477 79.9945 202.097 79.6114 202.516 78.3347Z" fill="white" stroke="#3C3C37" stroke-width="0.333333"/>
<path d="M61.5348 78.1786C62.1115 79.2233 62.9063 79.938 64.1375 79.8752C60.6465 84.3916 61.3244 90.6204 62.431 95.8987C63.8025 102.882 60.5296 109.464 57.4593 115.48L57.0229 115.559C56.2592 117.538 54.7864 119.117 53.5396 120.798C53.337 121.034 52.9396 121.497 52.7448 121.733L52.1837 121.803L52.1214 122.424C50.7187 123.398 49.3316 124.403 48.038 125.519C47.6562 125.723 46.9003 126.123 46.5185 126.328C41.5156 129.462 35.8738 131.826 29.8579 131.441L29.8735 130.53C33.7932 130.498 37.2609 128.331 40.7364 126.736C41.8585 126.076 42.9806 125.401 44.1106 124.741C49.0978 121.387 52.659 116.352 55.893 111.357C58.2308 107.367 59.7191 102.842 59.8204 98.1923C59.3529 94.7912 57.997 91.5001 58.3476 88.0048C58.1684 84.3995 60.4828 81.4383 61.5348 78.1786Z" fill="white" stroke="#191918" stroke-width="0.333333"/>
<path d="M127.319 93.9472C126.889 89.1533 125.557 84.0248 127.264 79.3632C128.675 86.4762 130.781 93.4725 133.597 100.181C134.338 101.488 133.453 102.866 133.413 104.228C133.844 103.527 134.251 102.819 134.665 102.119C136.843 109.916 141.549 116.858 146.653 123.146C152.253 129.668 158.96 135.435 166.976 138.952C166.705 139.326 166.179 140.065 165.916 140.439C165.293 140.392 164.049 140.299 163.427 140.252L163.355 140.96C163.77 140.991 164.592 141.046 165.006 141.077L164.966 142.143C158.003 139.886 151.718 136.034 146.159 131.403C139.539 125.279 134.354 117.636 131.419 109.193C129.648 104.15 127.654 99.0134 127.527 93.6359C126.506 94.9355 126.354 96.5387 126.322 98.1263C126.346 96.7644 126.067 95.3091 126.976 94.1106L125.604 93.3402C126.035 93.4958 126.897 93.7915 127.319 93.9472Z" fill="white" stroke="#0C0B0C" stroke-width="0.333333"/>
<path d="M235.536 88.0261C235.83 87.1024 236.151 86.194 236.477 85.2856C237.454 92.845 237.039 100.612 236.65 108.226C236.871 107.895 237.312 107.24 237.532 106.909C237.554 109.065 237.538 111.251 237.869 113.368L237.9 113.591C237.296 113.63 236.692 113.668 236.088 113.714C236.114 105.154 236.251 96.5247 235.536 88.0261Z" fill="white" stroke="#171719" stroke-width="0.333333"/>
<path d="M93.6474 92.3929C92.6937 92.0859 91.9749 88.7191 93.0254 87.6548C93.5783 89.0363 93.7856 90.6225 93.6474 92.3929Z" fill="white" stroke="#020104" stroke-width="0.333333"/>
<path d="M135.061 93.974C135.546 92.2861 135.352 90.5588 135.392 88.8394C137.799 93.5165 140.763 97.9492 144.446 101.759C144.01 101.767 143.129 101.79 142.685 101.806C142.984 102.863 144.05 102.808 144.825 102.279C145.181 102.737 145.891 103.652 146.247 104.109C150.487 108.423 155.082 112.375 159.855 116.114C159.734 115.688 159.492 114.828 159.371 114.402C155.607 111.705 152.102 108.636 149.073 105.158C148.508 104.535 147.717 103.494 148.395 102.674C150.349 99.992 152.401 97.3576 154.864 95.1018C155.68 95.8275 156.261 95.5751 156.6 94.3447C158.248 97.6968 160.453 100.773 162.86 103.644C166.801 107.351 171.655 110.04 175.887 113.337L177.058 112.927C177.13 113.298 177.26 114.047 177.324 114.426L178.786 113.471L178.657 114.82C180.224 114.97 181.79 115.569 183.163 116.279C185.578 117.068 188.074 117.446 190.618 117.391L190.529 118.409L190.472 118.898L190.068 119.552C188.728 119.694 187.387 119.797 186.047 119.852C179.65 119.158 173.141 117.446 167.988 113.526C167.285 113.148 166.591 112.769 165.904 112.391L165.888 111.736L165.081 111.728V110.955L164.467 110.908C164.257 110.671 163.829 110.198 163.619 109.961C159.904 106.16 157.909 101.191 156.229 96.3402C156.899 98.8956 156.77 101.845 158.579 103.983C159.524 104.874 159.613 106.183 159.904 107.367L160.687 106.956C161.22 107.863 161.793 108.747 162.415 109.607C164.854 111.988 167.269 114.505 170.451 115.956C172.438 117.336 174.78 118.046 176.969 119.063C178.867 119.718 180.805 120.254 182.792 120.617C180.458 122.226 177.889 120.239 175.644 119.466C175.362 119.828 174.804 120.546 174.522 120.909C178.616 122.155 182.84 123.07 187.169 122.865L186.79 124.08C180.038 123.953 173.286 121.997 167.229 119.079C165.089 118.062 162.908 117.036 161.147 115.443C160.703 115.774 160.259 116.114 159.831 116.461C162.722 117.052 165.024 119.095 167.713 120.239C173.536 122.676 179.674 124.837 186.055 125.168C184.875 126.493 183.268 126.824 181.556 126.517C181.023 126.959 180.522 127.432 180.054 127.929C174.029 126.888 168.279 124.671 162.94 121.8C160.009 119.828 156.907 118.054 154.283 115.68L153.063 116.397L153.903 114.891H152.966V114.008L151.496 114.733L152.11 113.534C151.012 112.99 149.865 112.414 149.162 111.381C146.99 108.431 143.8 106.254 142.168 102.918L141.514 103.691C141.869 100.749 138.816 98.9193 138.146 96.2297C137.952 96.6556 137.783 97.0894 137.637 97.539C139.059 99.5108 140.23 101.632 141.514 103.691C141.902 104.204 142.144 104.772 142.249 105.379C141.11 105.702 140.811 104.417 140.464 103.683C140.375 104.306 140.181 105.56 140.093 106.183C139.874 106.325 139.455 106.617 139.245 106.767C138.921 102.697 136.814 98.7773 136.014 94.881C136.563 93.6506 137.217 96.7108 137.662 95.3937C137.395 94.6049 137.08 93.832 136.725 93.0906C136.167 93.3824 135.61 93.6742 135.061 93.974Z" fill="white"/>
<path d="M141.514 103.691L142.168 102.918C143.8 106.254 146.99 108.431 149.162 111.381C149.865 112.414 151.012 112.99 152.11 113.534L151.496 114.733L152.966 114.008V114.891H153.903L153.063 116.397L154.283 115.68C156.907 118.054 160.009 119.828 162.94 121.8C168.279 124.671 174.029 126.888 180.054 127.929C180.522 127.432 181.023 126.959 181.556 126.517C183.268 126.824 184.875 126.493 186.055 125.168C179.674 124.837 173.536 122.676 167.713 120.239C165.024 119.095 162.722 117.052 159.831 116.461C160.259 116.114 160.703 115.774 161.147 115.443C162.908 117.036 165.089 118.062 167.229 119.079C173.286 121.997 180.038 123.953 186.79 124.08L187.169 122.865C182.84 123.07 178.616 122.155 174.522 120.909C174.804 120.546 175.362 119.828 175.644 119.466C177.889 120.239 180.458 122.226 182.792 120.617C180.805 120.254 178.867 119.718 176.969 119.063C174.78 118.046 172.438 117.336 170.451 115.956C167.269 114.505 164.854 111.988 162.415 109.607C161.793 108.747 161.22 107.863 160.687 106.956L159.904 107.367C159.613 106.183 159.524 104.874 158.579 103.983C156.77 101.845 156.899 98.8956 156.229 96.3402C157.909 101.191 159.904 106.16 163.619 109.961C163.829 110.198 164.257 110.671 164.467 110.908L165.081 110.955V111.728L165.888 111.736L165.904 112.391C166.591 112.769 167.285 113.148 167.988 113.526C173.141 117.446 179.65 119.158 186.047 119.852C187.387 119.797 188.728 119.694 190.068 119.552L190.472 118.898L190.529 118.409L190.618 117.391C188.074 117.446 185.578 117.068 183.163 116.279C181.79 115.569 180.224 114.97 178.657 114.82L178.786 113.471L177.324 114.426C177.26 114.047 177.13 113.298 177.058 112.927L175.887 113.337C171.655 110.04 166.801 107.351 162.86 103.644C160.453 100.773 158.248 97.6968 156.6 94.3447C156.261 95.5751 155.68 95.8275 154.864 95.1018C152.401 97.3576 150.349 99.992 148.395 102.674C147.717 103.494 148.508 104.535 149.073 105.158C152.102 108.636 155.607 111.705 159.371 114.402C159.492 114.828 159.734 115.688 159.855 116.114C155.082 112.375 150.487 108.423 146.247 104.109C145.891 103.652 145.181 102.737 144.825 102.279C144.05 102.808 142.984 102.863 142.685 101.806C143.129 101.79 144.01 101.767 144.446 101.759C140.763 97.9492 137.799 93.5165 135.392 88.8394C135.352 90.5588 135.546 92.2861 135.061 93.974C135.61 93.6742 136.167 93.3824 136.725 93.0906C137.08 93.832 137.395 94.6049 137.662 95.3937C137.217 96.7108 136.563 93.6506 136.014 94.881C136.814 98.7773 138.921 102.697 139.245 106.767C139.455 106.617 139.874 106.325 140.093 106.183C140.181 105.56 140.375 104.306 140.464 103.683C140.811 104.417 141.11 105.702 142.249 105.379C142.144 104.772 141.902 104.204 141.514 103.691ZM141.514 103.691C141.869 100.749 138.816 98.9193 138.146 96.2297C137.952 96.6556 137.783 97.0894 137.637 97.539C139.059 99.5108 140.23 101.632 141.514 103.691Z" stroke="#0D0D0D" stroke-width="0.333333"/>
<path d="M91.7282 90.0238C92.3567 90.9962 92.9517 92.0011 93.6891 92.9087C92.7338 96.7984 91.3678 100.591 89.7505 104.27C88.9628 105.972 87.9069 107.568 87.337 109.367L86.8007 109.456C84.5129 115.429 79.2335 119.813 74.0378 123.484L74.5658 124.375C73.8451 124.035 73.1244 123.702 72.4121 123.37C80.2475 117.349 85.2923 108.678 88.7114 99.7157C89.8343 96.531 91.4265 93.4273 91.7282 90.0238Z" fill="white" stroke="#2F312C" stroke-width="0.333333"/>
<path d="M205.13 93.8769C205.889 93.1554 207.495 93.8735 207.107 94.5984C206.214 95.0063 203.965 94.6085 205.13 93.8769Z" fill="white" stroke="#191717" stroke-width="0.333333"/>
<path d="M181.007 94.7618C184.983 97.6792 187.963 101.681 191.875 104.69C193.546 106.095 195.98 106.592 197.193 108.478C195.257 108.486 193.731 107.424 192.285 106.401C189.755 104.446 187.248 102.361 185.642 99.6114L184.927 99.6955C186.124 101.315 187.441 102.788 188.758 104.339L186.292 103.942C187.361 104.392 188.477 104.705 189.626 104.935C190.951 106.332 192.654 107.317 194.277 108.371C195.618 108.241 196.615 109.188 197.723 109.738C197.595 109.043 197.273 108.31 197.707 107.661C200.711 109.616 204.366 110.892 208.005 111.174C208.15 111.403 208.439 111.854 208.584 112.075C211.676 112.457 214.785 112.663 217.91 112.709L217.902 113.229C214.528 113.519 211.098 112.717 207.764 113.435C204.969 113.74 202.141 113.29 199.338 113.519C205.652 115.329 212.48 112.9 218.785 114.955C220.119 115.825 221.677 114.909 223.099 114.794C222.995 116.635 220.536 115.359 219.524 115.886L219.926 116.94C221.974 117.437 224.055 117.849 226.079 118.452C222.111 117.864 218.119 116.871 214.102 117.773C206.961 117.971 199.715 118.918 192.622 117.849L192.317 116.933C192.727 116.864 193.554 116.726 193.972 116.658C193.474 116.673 192.47 116.696 191.964 116.703L192.277 117.902C188.301 116.81 183.907 116.757 180.163 114.725C179.954 113.839 180.179 112.709 179.32 112.091C178.412 112.205 177.922 113.183 177.175 113.603L177.006 112.702C174.91 112.213 173.199 110.808 171.705 109.395C173.086 108.585 174.974 108.173 175.601 106.561C177.36 111.403 182.975 112.411 187.264 114.336C189.546 114.84 191.771 115.581 194.1 115.902C194.221 115.68 194.47 115.245 194.59 115.023C189.642 114.657 185.007 112.923 180.581 110.892C179.159 109.99 177.858 108.944 176.621 107.844C176.693 107.371 176.838 106.416 176.91 105.935L176.179 106.202C176.235 103.514 175.93 100.711 177.207 98.2138C177.858 97.8625 178.508 97.5112 179.159 97.1676C180.107 101.559 182.846 105.523 186.927 107.806C188.043 108.234 189.176 108.654 190.196 109.272C195.98 111.426 202.117 112.839 208.367 112.671C206.616 111.266 204.133 111.793 202.045 111.296C198.751 111.205 195.699 109.998 192.526 109.387C191.482 109.051 190.445 108.661 189.441 108.241C188.421 107.783 187.007 107.745 186.445 106.661C185.818 106.126 186.614 105.248 186.027 104.713C185.441 103.904 184.774 105.148 184.308 105.454C182.284 102.811 180.26 99.8635 180.284 96.4649C180.468 96.0372 180.83 95.1895 181.007 94.7618Z" fill="white" stroke="#0D0F0E" stroke-width="0.333333"/>
<path d="M45.2246 112.53C45.2246 107.059 45.2246 101.409 45.2246 95.9464C45.2246 101.462 45.2246 107.074 45.2246 112.53Z" fill="white" stroke="#252726" stroke-width="0.333333"/>
<path d="M133.879 95.9464C134.433 100.085 136.58 103.722 137.425 107.792C135.936 103.969 133.999 100.131 133.879 95.9464Z" fill="white" stroke="#040305" stroke-width="0.333333"/>
<path d="M181.162 95.9499C181.967 95.9051 182.361 96.2968 182.343 97.1304C181.537 97.1472 181.144 96.7555 181.162 95.9499Z" fill="white" stroke="#737E76" stroke-width="0.333333"/>
<path d="M137.425 98.3781C137.557 97.9499 137.711 97.5367 137.887 97.131C138.496 99.6929 141.268 101.436 140.945 104.238C139.779 102.277 138.716 100.256 137.425 98.3781Z" fill="white" stroke="#F4F4F3" stroke-width="0.333333"/>
<path d="M175.608 100.684C176.617 100.849 176.601 102.43 176.093 103.053C174.952 102.975 175.163 101.308 175.608 100.684Z" fill="white" stroke="#404240" stroke-width="0.333333"/>
<path d="M178.797 103.054C179.96 104.622 181.028 106.311 182.197 107.879C182.528 107.716 183.195 107.391 183.526 107.228L182.839 108.976C181.46 107.073 179.388 105.762 178.797 103.054Z" fill="white" stroke="#E8E8EA" stroke-width="0.333333"/>
<path d="M200.074 105.423C201.476 105.409 202.817 106.263 204.128 107.089C204.302 107.558 204.636 108.508 204.802 108.976C203.257 107.737 201.279 107.723 200.074 105.423Z" fill="white" stroke="#040305" stroke-width="0.333333"/>
<path d="M139.901 107.792C140.455 108.213 140.977 108.688 141.466 109.218C142.421 106.864 145.093 108.992 144.893 110.784L146.201 110.293L145.503 111.4C146.393 112.187 147.252 113.005 148.087 113.847C150.173 116.231 152.524 118.367 154.915 120.463C155.1 120.673 155.485 121.079 155.678 121.281C160.067 125.03 164.818 128.599 170.411 130.469C181.068 134.21 192.671 134.997 203.89 133.89C204.58 134.56 205.286 135.231 205.984 135.901L204.484 136.018L203.721 135.815C201.587 135.223 199.292 135.238 197.141 135.433C199.268 135.511 201.466 135.55 203.416 136.509C197.607 136.781 192.254 139.54 186.444 139.774C177.882 139.478 169.408 137.296 161.849 133.353C156.569 130.578 152.059 126.721 148.095 122.372C147.212 121.39 146.474 120.292 145.687 119.24C143.777 116.154 141.651 113.091 140.503 109.662L139.789 109.802C139.813 109.304 139.869 108.29 139.901 107.792Z" fill="white" stroke="#0C0B0B" stroke-width="0.333333"/>
<path d="M146.911 107.828C147.786 107.666 148.159 108.042 148.043 108.937C147.149 109.105 146.769 108.736 146.911 107.828Z" fill="white" stroke="#393839" stroke-width="0.333333"/>
<path d="M137.851 107.792C143.168 107.899 135.617 110.402 137.851 107.792Z" fill="white" stroke="#A5A1AA" stroke-width="0.333333"/>
<path d="M149.246 108.976C149.246 110.556 149.246 110.556 149.246 108.976Z" fill="white" stroke="#444341" stroke-width="0.333333"/>
<path d="M183.63 109.153C184.899 108.537 187.503 109.62 187.01 111.057C185.715 111.958 182.956 110.589 183.63 109.153Z" fill="white" stroke="#3D3C37" stroke-width="0.333333"/>
<path d="M197.71 108.976C199.286 110.556 199.286 110.556 197.71 108.976Z" fill="white" stroke="#666D64" stroke-width="0.333333"/>
<path d="M187.072 111.767C187.612 111.626 188.176 111.498 188.74 111.37C189.093 111.507 189.798 111.771 190.151 111.907C192.18 110.38 194.984 112.497 197.663 112.076L197.71 112.336C196.347 112.311 194.859 112.146 193.613 112.53C191.443 112.278 189.344 111.783 187.072 111.767Z" fill="white" stroke="#E8E8EA" stroke-width="0.333333"/>
<path d="M94.4901 112.53C95.3747 112.847 94.5381 116.363 93.808 116.066C93.4723 114.846 93.8933 113.145 94.4901 112.53Z" fill="white" stroke="#2F2F2E" stroke-width="0.333333"/>
<path d="M168.159 112.53C171.311 112.53 171.311 112.53 168.159 112.53Z" fill="white" stroke="#4B4F4C" stroke-width="0.333333"/>
<path d="M182.343 113.714C180.767 112.135 180.767 112.135 182.343 113.714Z" fill="white" stroke="#52504E" stroke-width="0.333333"/>
<path d="M172.887 113.714C172.887 116.873 172.887 116.873 172.887 113.714Z" fill="white" stroke="#5B5E58" stroke-width="0.333333"/>
<path d="M183.525 114.243C186.066 111.699 183.755 119.445 183.525 114.243Z" fill="white" stroke="#4C4945" stroke-width="0.333333"/>
<path d="M210.74 113.752C213.704 113.948 216.802 113.176 219.65 114.597L220.169 116.827C217.044 115.638 213.82 116.533 210.713 117.268C210.722 116.386 210.74 114.634 210.74 113.752Z" fill="white" stroke="#E1E3E5" stroke-width="0.333333"/>
<path d="M176.433 116.083C179.585 116.083 179.585 116.083 176.433 116.083Z" fill="white" stroke="#6C7A71" stroke-width="0.333333"/>
<path d="M188.253 116.344C190.808 115.082 188.458 118.95 188.253 116.344Z" fill="white" stroke="#333933" stroke-width="0.333333"/>
<path d="M194.164 115.655C195.131 114.892 196.172 114.085 197.358 114.357C201.804 113.976 206.291 114.63 210.713 113.714C210.632 114.892 210.575 116.08 210.526 117.268C205.381 114.957 199.569 116.745 194.164 115.655Z" fill="white" stroke="#F4F4F3" stroke-width="0.333333"/>
<path d="M175.251 116.318C175.251 115.133 175.251 118.957 175.251 116.318Z" fill="white" stroke="#515453" stroke-width="0.333333"/>
<path d="M181.204 117.336C182.122 117.106 182.487 117.461 182.292 118.394C181.393 118.603 181.028 118.248 181.204 117.336Z" fill="white" stroke="#333130" stroke-width="0.333333"/>
<path d="M50.9367 127.53C54.9336 124.996 58.0457 121.276 60.5913 117.268C59.0935 120.082 57.7974 123.425 54.8249 124.892L55.5157 125.734C53.2184 125.694 51.7749 127.722 49.8967 128.74C48.3368 129.654 46.6837 130.384 45.2246 131.482C45.2945 131.105 45.4419 130.36 45.5195 129.991C47.2735 129.045 49.0508 128.147 50.9367 127.53Z" fill="white" stroke="#E8E8EA" stroke-width="0.333333"/>
<path d="M190.695 119.097C191.705 118.327 192.868 118.247 194.164 118.857V119.257C193 119.635 191.825 119.729 190.618 119.548L190.695 119.097Z" fill="white" stroke="#141519" stroke-width="0.333333"/>
<path d="M210.713 118.551C214.658 118.708 218.887 117.842 222.533 119.417C221.787 119.507 221.034 119.575 220.28 119.626C219.235 118.618 217.067 118.59 216.051 119.637C215.141 119.626 214.238 119.598 213.343 119.564C212.412 119.389 211.189 119.327 210.713 118.551Z" fill="white" stroke="#CDCBD1" stroke-width="0.333333"/>
<path d="M172.887 119.637C174.463 119.637 174.463 119.637 172.887 119.637Z" fill="white" stroke="#524D4F" stroke-width="0.333333"/>
<path d="M191.384 118.763C192.25 118.957 193.092 118.856 193.926 118.452C200.301 118.856 206.817 118.933 213.254 119.368C214.245 119.415 215.245 119.453 216.252 119.469C217.81 119.539 219.376 119.593 220.935 119.453C221.769 119.384 222.603 119.29 223.429 119.166C224.696 118.965 225.971 118.662 227.262 118.918C221.91 120.571 216.268 120.113 210.767 120.742C206.281 121.075 201.827 120.253 197.349 120.299C193.91 120.307 190.487 119.973 187.072 119.702C188.378 119.647 189.684 119.547 190.991 119.407L191.384 118.763Z" fill="white" stroke="#040305" stroke-width="0.333333"/>
<path d="M215.441 119.563C216.861 118.065 219.891 118.105 221.351 119.547C219.384 119.692 217.408 119.635 215.441 119.563Z" fill="white" stroke="#F4F4F3" stroke-width="0.333333"/>
<path d="M175.238 119.637C177.576 120.569 180.25 122.967 182.681 121.026L182.757 121.245C182.975 123.224 185.095 123.262 186.154 122.082C186.499 122.025 187.18 121.911 187.517 121.854C187.592 122.358 187.735 123.357 187.811 123.852C189.964 123.862 192.134 123.681 194.186 122.853C195.355 122.672 196.533 122.758 197.71 123.11L197.037 123.738C194.649 124.433 192.218 124.899 189.804 125.432C188.778 125.527 187.761 125.574 186.743 125.555L186.844 125.203L187.239 123.738C182.731 123.985 178.333 122.882 174.069 121.378C174.363 120.941 174.943 120.075 175.238 119.637Z" fill="white" stroke="#2B2B2A" stroke-width="0.333333"/>
<path d="M182.343 121C183.841 120.501 185.808 121.103 187.071 122.128C185.597 123.717 182.648 123.666 182.343 121Z" fill="white" stroke="#1A191B" stroke-width="0.333333"/>
<path d="M148.218 120.822C152.204 125.175 156.739 129.037 162.049 131.815C169.651 135.763 178.172 137.948 186.782 138.244C192.625 138.01 198.007 135.248 203.849 134.975C201.888 134.015 199.677 133.976 197.539 133.898C199.702 133.703 202.01 133.688 204.156 134.281L204.923 134.483C205.27 134.741 205.964 135.264 206.303 135.521C207.916 135.295 209.522 135.069 211.144 134.85C211.33 135.24 211.709 136.013 211.895 136.395C202.534 137.971 193.819 141.763 185.112 145.282C171.216 150.97 158.732 159.264 145.668 166.45C126.026 176.952 103.916 184.325 81.2241 183.545C80.4091 183.092 79.594 182.647 78.779 182.203C79.8765 181.828 81.7567 182.25 81.8939 180.736C81.1999 180.806 80.5059 180.884 79.8119 180.97C79.8038 180.681 79.7877 180.104 79.7796 179.815C77.8591 177.748 74.8088 177.49 72.4121 176.132C73.2433 175.742 74.0744 175.344 74.9298 175.001C85.9609 176.101 97.1857 174.58 107.62 171.014C119.264 166.59 129.537 159.287 138.107 150.549C142.109 146.928 144.707 142.099 148.855 138.634C147.895 137.776 146.951 136.91 146.015 136.028C145.676 135.521 144.998 134.507 144.659 134C144.562 132.58 145.353 131.55 146.636 130.926C152.261 135.568 158.619 139.43 165.664 141.693C165.761 141.724 165.947 141.786 166.035 141.818C168.246 142.535 170.53 143.035 172.806 143.519C175.687 144.127 178.648 144.018 181.529 143.464C177.865 141.825 173.742 141.404 170.11 139.625C169.304 139.235 168.505 138.868 167.698 138.494C159.588 134.967 152.801 129.186 147.136 122.647C147.411 122.195 147.951 121.282 148.218 120.822Z" fill="white" stroke="#E9E9EB" stroke-width="0.333333"/>
<path d="M188.253 120.822C190.176 122.124 192.181 122.192 194.164 122.598C192.345 124.07 190.422 124.391 188.514 124.374C188.447 123.495 188.32 121.718 188.253 120.822Z" fill="white" stroke="#040506" stroke-width="0.333333"/>
<path d="M197.176 123.445C202.719 123.135 208.619 123.068 214.259 123.472C211.447 123.843 208.294 123.295 205.758 124.375C202.654 124.353 199.632 123.771 196.528 123.81L197.176 123.445Z" fill="white" stroke="#CDCDD3" stroke-width="0.333333"/>
<path d="M196.58 123.195C199.762 123.106 202.861 124.432 206.043 124.482C210.355 124.722 214.675 124.419 218.987 124.937C209.142 125.353 199.28 125.77 189.436 125.441C191.82 124.735 194.221 124.116 196.58 123.195Z" fill="white" stroke="#040305" stroke-width="0.333333"/>
<path d="M217.805 126.764C227.524 124.555 237.498 123.67 247.357 125.002C244.818 125.794 242.171 125.254 239.579 125.403C233.369 125.198 227.268 126.829 221.12 127.574C220.475 127.668 219.187 127.845 218.543 127.929C218.356 127.64 217.984 127.062 217.805 126.764Z" fill="white" stroke="#0A0A0B" stroke-width="0.333333"/>
<path d="M132.649 125.56C133.406 126.276 134.171 126.992 134.937 127.715C134.994 129.747 134.391 131.84 132.909 133.366C133.577 133.833 134.375 133.584 135.116 133.482C134.318 134.774 132.811 136.269 133.764 137.856C134.945 135.436 136.72 133.288 137.534 130.704C138.226 131.529 139.7 131.996 139.789 133.14C139.276 134.627 138.348 135.934 137.567 137.296C135.58 140.938 133.039 144.301 130.483 147.593C124.474 154.519 116.559 159.664 108.425 164.061C94.6158 170.941 78.5022 172.98 63.1539 171.081C49.5562 169.712 36.5855 165.19 23.8753 160.621C20.8464 159.726 17.907 157.96 14.6664 158.146C14.5524 157.874 14.3325 157.321 14.2185 157.049C13.1112 157.314 12.0201 157.243 10.9453 156.839C11.6863 156.761 13.1844 156.59 13.9254 156.504C14.8536 155.648 12.5168 155.399 12.0038 154.986C13.9417 154.979 15.6597 155.936 17.5813 156.014C16.6857 155.944 15.3747 155.983 15.3585 157.08C16.1727 157.337 16.9869 157.594 17.8093 157.851C24.3232 159.656 30.5195 162.497 37.2206 163.711C50.7938 167.182 65.0266 169.167 79.0396 167.213C83.2491 166.7 87.4262 165.882 91.4647 164.622C97.0667 162.629 102.766 160.52 107.578 157.049C116.6 150.068 125.036 141.919 130.206 131.871C131.273 129.863 132.372 127.832 132.649 125.56Z" fill="white" stroke="#090A09" stroke-width="0.333333"/>
<path d="M196.528 126.012C203.272 125.495 210.179 125.27 216.891 126.172C217.128 126.278 217.611 126.483 217.856 126.583C218.045 126.795 218.437 127.206 218.634 127.411C219.313 127.352 220.672 127.226 221.351 127.159C220.099 127.995 218.364 127.743 216.891 127.929L216.833 127.604C216.792 127.332 216.694 126.782 216.653 126.503C211.955 126.954 207.208 127.126 202.486 126.835C200.522 126.463 198.484 126.417 196.528 126.012Z" fill="white" stroke="#E8E8EA" stroke-width="0.333333"/>
<path d="M185.367 127.135C185.859 126.632 186.336 126.104 186.79 125.56C191.834 126.121 196.894 126.44 201.961 126.582C206.398 126.951 210.858 126.733 215.272 126.163C215.31 126.515 215.402 127.211 215.441 127.554C214.449 127.68 213.457 127.764 212.465 127.797C204.314 128.669 196.171 127.362 188.036 127.01C187.428 127.705 186.821 128.409 186.221 129.113C184.598 128.51 182.853 128.401 181.161 128.518C181.646 127.998 182.122 127.47 182.599 126.942C183.291 126.984 184.675 127.085 185.367 127.135Z" fill="white" stroke="#040305" stroke-width="0.333333"/>
<path d="M70.1514 128.42C73.4146 129.361 76.5378 127.823 79.5044 126.744C79.4137 127.272 79.2407 128.321 79.1501 128.849C71.9478 133.647 63.3365 136.295 54.6098 137.405C52.3519 136.67 49.9621 136.502 47.5889 136.64C50.3412 136.02 53.1182 135.484 55.8871 134.979C56.2744 135.913 57.3868 135.629 58.1944 135.805C57.6093 135.538 56.4309 135.002 55.8459 134.734C60.9632 133.747 65.4955 131.06 69.7559 128.367L70.1514 128.42Z" fill="white" stroke="#1D1A19" stroke-width="0.333333"/>
<path d="M186.669 126.744C195.463 127.117 204.266 128.501 213.077 127.578C209.162 128.173 205.197 128.962 201.265 129.113C197.583 127.924 193.701 128.217 189.903 128.057C188.49 127.906 187.126 128.332 185.888 129.024C185.589 129.007 184.998 128.98 184.708 128.971C185.356 128.226 186.013 127.481 186.669 126.744Z" fill="white" stroke="#4D4B4C" stroke-width="0.333333"/>
<path d="M187.072 128.89C188.309 128.223 189.672 127.812 191.084 127.958C194.88 128.112 198.759 127.83 202.439 128.976C197.322 129.104 192.18 129.241 187.072 128.89Z" fill="white" stroke="#110D11" stroke-width="0.333333"/>
<path d="M204.802 132.616C220.953 130.768 237.479 126.462 253.557 131.415C256.666 131.743 259.646 132.85 262.723 133.432C261.596 134.801 259.83 133.544 258.456 133.46C248.698 132.231 238.797 130.252 228.992 131.978C221.6 132.512 214.136 133.188 206.888 135.036C206.193 134.229 205.489 133.422 204.802 132.616Z" fill="white" stroke="#1F1E1E" stroke-width="0.333333"/>
<path d="M142.269 133.851C143.56 134.95 144.899 136.011 146.407 136.85C147.342 137.712 148.286 138.559 149.246 139.399C145.1 142.787 142.503 147.51 138.503 151.051C129.937 159.597 119.67 166.74 108.032 171.066C97.6039 174.553 86.3851 176.041 75.3599 174.965C74.5695 174.912 72.9887 174.798 72.1983 174.737C74.8115 174.172 77.473 173.76 80.0297 172.959C74.3598 172.455 68.6416 172.493 62.9556 172.394C63.133 172.135 63.4959 171.616 63.6734 171.356C78.9086 172.692 94.7165 170.845 108.613 164.565C116.71 160.437 124.695 155.744 130.865 149.181C134.946 145.496 137.696 140.78 140.971 136.476C141.398 135.599 141.834 134.721 142.269 133.851Z" fill="white" stroke="#050405" stroke-width="0.333333"/>
<path d="M132.697 133.851C132.697 135.431 132.697 135.431 132.697 133.851Z" fill="white" stroke="white" stroke-width="0.333333"/>
<path d="M187.072 134.118C190.214 133.957 193.371 133.772 196.528 133.887C193.625 135.598 190.09 135.158 187.072 134.118Z" fill="white" stroke="#1E1D1D" stroke-width="0.333333"/>
<path d="M211.624 137.039C222.127 135.093 232.984 134.389 243.616 135.718C247.005 135.749 250.297 136.648 253.67 136.867L253.846 137.313C253.999 137.688 254.296 138.439 254.449 138.814C253.919 138.775 252.867 138.697 252.345 138.666C251.638 137.446 250.064 137.688 249.39 138.783C238.38 137.501 227.154 137.915 216.305 140.167C209.777 141.136 203.505 143.184 197.458 145.717C187.316 149.634 177.704 154.739 168.542 160.478C155.268 169.25 141.761 178.154 126.359 182.97C110.869 187.575 94.0133 188.834 78.3223 184.432C79.1413 184.401 80.7795 184.323 81.5906 184.284C104.171 185.066 126.174 177.678 145.72 167.154C158.721 159.954 171.143 151.643 184.971 145.944C193.636 142.418 202.309 138.619 211.624 137.039Z" fill="white" stroke="#080808" stroke-width="0.333333"/>
<path d="M130.994 135.036C131.025 136.378 131.286 137.532 132.697 138.12C131.175 138.421 130.962 140.148 130.04 141.121C123.188 149.686 113.514 155.899 103.146 159.911C107.23 157.521 111.763 155.824 115.54 152.974C121.769 148.012 127.635 142.176 130.994 135.036Z" fill="white" stroke="#F4F4F3" stroke-width="0.333333"/>
<path d="M36.9502 137.232C39.573 135.92 42.6096 135.859 45.2246 137.195C42.4691 137.402 39.7057 137.523 36.9502 137.232Z" fill="white" stroke="#FDFFFE" stroke-width="0.333333"/>
<path d="M254.449 136.477C255.912 135.773 257.089 136.512 257.995 138.727C257.019 139.207 256.028 139.654 255.029 139.774C254.882 138.95 254.596 137.302 254.449 136.477Z" fill="white" stroke="#040305" stroke-width="0.333333"/>
<path d="M258.213 138.13C258.658 136.27 260.613 138.535 261.541 138.873C260.743 139.55 259.946 140.248 259.164 140.958C257.277 139.696 254.862 140.688 253.267 138.603C253.765 138.648 254.77 138.761 255.276 138.817C256.265 138.738 257.247 138.445 258.213 138.13Z" fill="white" stroke="#040506" stroke-width="0.333333"/>
<path d="M250.902 139.145C251.442 137.1 252.701 136.648 253.266 138.926C252.515 139.978 251.731 140.051 250.902 139.145Z" fill="white" stroke="#3C3C37" stroke-width="0.333333"/>
<path d="M168.078 139.774C168.841 140.1 169.597 140.42 170.36 140.76C173.795 142.311 177.696 142.678 181.161 144.106C178.436 144.589 175.635 144.684 172.91 144.154C171.65 142.508 168.521 141.937 166.505 142.671C166.421 142.644 166.246 142.59 166.154 142.562L166.192 141.631C165.795 141.603 165.009 141.556 164.612 141.529L164.681 140.91C165.276 140.95 166.467 141.032 167.063 141.073C167.314 140.746 167.818 140.1 168.078 139.774Z" fill="white" stroke="#353737" stroke-width="0.333333"/>
<path d="M176.433 138.13C178.241 136.916 179.419 137.23 179.979 139.044C178.157 140.259 176.98 139.959 176.433 138.13Z" fill="white" stroke="#CAC8CC" stroke-width="0.333333"/>
<path d="M261.695 139.774C266.593 140.465 270.914 142.838 275.398 144.614C278.371 145.822 281.206 147.278 284 148.784L283.846 149.25C276.868 146.186 269.769 142.925 262.02 141.826C262.434 141.542 263.246 140.96 263.661 140.669C262.223 141.149 260.696 141.324 259.177 141.12C260.005 140.662 260.85 140.21 261.695 139.774Z" fill="white" stroke="#080808" stroke-width="0.333333"/>
<path d="M46.4067 140.958C46.4209 140.958 50.1561 140.958 49.9442 140.958C49.0546 140.958 47.2893 140.958 46.4067 140.958Z" fill="white" stroke="#171719" stroke-width="0.333333"/>
<path d="M197.532 146.594C210.234 141.294 224.406 140.528 238.086 141.133C240.29 141.394 242.471 141.792 244.691 141.922C243.545 142.443 242.325 142.78 241.09 143.04C242.22 143.638 243.383 144.243 243.997 145.391C232.724 145.162 221.338 146.012 210.485 149.044C201.069 151.717 192.267 155.982 183.748 160.577C176.965 164.621 170.601 169.254 164.286 173.91C170.004 170.257 175.325 166.06 181.156 162.553C193.777 154.949 208.135 149.58 223.147 148.585C233.604 147.053 244.287 148.125 254.503 150.522C253.178 150.943 251.797 151.135 250.425 151.265C251.604 151.525 252.775 151.801 253.954 152.092C253.251 152.238 252.54 152.375 251.838 152.506C247.623 152.628 243.456 151.878 239.24 151.954C227.749 152.49 215.968 153.463 205.365 158.073C195.319 161.887 186.122 167.378 177.174 173.083C172.483 176.307 167.686 179.424 163.334 183.061C178.693 172.47 194.73 161.917 213.335 157.231C227.758 154.014 243.036 154.267 257.24 158.318C258.791 158.785 260.341 159.26 261.94 159.582C262.134 159.857 262.529 160.409 262.723 160.685C257.741 159.245 252.484 159.314 247.372 158.655C233.434 158.655 219.028 159.444 206.124 164.919C197.766 168.274 189.958 172.7 182.367 177.379C166.418 186.86 148.499 194.281 129.49 195.291C122.473 195.422 115.27 195.935 108.463 193.928C101.954 191.968 95.3646 190.252 88.9609 187.993C109.747 189.471 130.637 183.643 148.322 173.405C155.598 169.2 162.696 164.72 169.753 160.187C178.58 154.926 187.81 150.208 197.532 146.594Z" fill="white" stroke="#040506" stroke-width="0.333333"/>
<path d="M151.642 140.958C155.307 142.647 158.556 145.07 162.254 146.712C164.103 147.62 166.09 148.204 168.159 148.393C166.31 149.743 163.973 150.232 162.107 151.558C152.921 157.77 143.807 164.155 133.83 169.135C132.714 169.632 131.615 170.153 130.54 170.714C117.948 176.278 104.086 180.082 90.1431 178.504C98.2631 176.775 106.212 174.155 113.827 170.911C125.181 165.489 135.385 157.943 144.076 149.048C146.934 146.649 148.848 143.413 151.642 140.958Z" fill="white" stroke="#040305" stroke-width="0.333333"/>
<path d="M246.151 140.958C256.538 142.274 266.444 145.719 275.726 150.233C275.481 150.285 274.991 150.382 274.738 150.435C265.401 147.229 255.567 144.815 245.606 144.516L245.472 144.344C244.871 143.223 243.734 142.632 242.628 142.049C243.837 141.795 245.029 141.467 246.151 140.958Z" fill="white" stroke="#1B1819" stroke-width="0.333333"/>
<path d="M0.387302 142.143C11.6075 142.678 22.8358 143.529 33.8946 145.451C36.4759 145.918 39.1861 145.684 41.6786 146.581C41.0172 147.078 40.3638 147.568 39.7024 148.066C32.2249 146.777 24.6829 145.865 17.2136 144.554C11.6317 143.529 5.93691 143.379 0.306641 142.701L0.387302 142.143Z" fill="white" stroke="#1B1917" stroke-width="0.333333"/>
<path d="M165.794 142.351C168.026 141.867 171.492 142.243 172.887 143.327C170.503 143.05 168.111 142.763 165.794 142.351Z" fill="white" stroke="#040305" stroke-width="0.333333"/>
<path d="M2.6709 149.886C4.48243 148.859 6.66107 149.401 8.64019 149.336C13.6678 149.716 18.7513 149.781 23.6991 150.808C27.1945 151.496 30.5302 149.805 34.0496 150.517C32.9563 150.509 31.855 150.485 30.7617 150.452C30.4025 150.913 30.203 151.569 30.8335 151.892C34.4566 151.674 38.0557 152.661 41.6788 152.927C40.0428 155.322 36.8187 155.006 34.5124 156.357C31.2165 155.443 27.9286 154.513 24.5769 153.858C23.9066 154.974 22.51 154.497 21.4646 154.675C22.8053 154.82 23.8587 154.424 24.6168 153.494C17.2829 152.442 10.1245 150.096 2.6709 149.886Z" fill="white" stroke="#191718" stroke-width="0.333333"/>
<path d="M255.848 150.435C261.019 151.888 266.653 152.953 270.997 156.357C265.125 154.655 259.112 153.544 253.12 152.502L253.389 152.448C254.037 152.316 254.693 152.176 255.341 152.028C254.253 151.733 253.172 151.453 252.084 151.189C253.351 151.056 254.626 150.862 255.848 150.435Z" fill="white" stroke="#3A353D" stroke-width="0.333333"/>
<path d="M19.2485 151.339C18.826 149.583 23.2361 150.779 20.8946 151.619C20.4809 151.551 19.6622 151.407 19.2485 151.339Z" fill="white" stroke="#464846" stroke-width="0.333333"/>
<path d="M64.1377 150.843C64.7386 150.316 66.3895 150.153 66.5018 151.254C65.8943 151.726 64.2698 151.881 64.1377 150.843Z" fill="white" stroke="#D3D1D5" stroke-width="0.333333"/>
<path d="M21.5835 155.346C22.9497 155.204 24.333 155.147 25.725 155.183C27.0052 156.099 29.4369 155.851 29.8579 157.542C27.1685 156.611 24.333 156.078 21.5835 155.346Z" fill="white" stroke="#B4B1B7" stroke-width="0.333333"/>
<path d="M18.0376 156.712C19.8171 156.112 20.9949 156.272 21.5838 157.2C19.8171 157.785 18.6393 157.617 18.0376 156.712Z" fill="white" stroke="#A4A2A7" stroke-width="0.333333"/>
<path d="M29.8579 156.421C33.42 155.984 36.9104 157.935 40.4964 157.944C37.1096 160.173 33.3403 156.987 29.8579 156.421Z" fill="white" stroke="#040305" stroke-width="0.333333"/>
<path d="M22.7656 161.095C25.1238 162.215 28.4054 161.655 29.858 164.649C27.3653 163.97 24.5768 163.486 22.7656 161.095Z" fill="white" stroke="#D2D1D7" stroke-width="0.333333"/>
<path d="M78.3222 163.211C75.438 163.938 72.5696 163.023 70.0479 161.445C71.8761 161.517 73.6886 161.4 75.4932 161.095C76.3916 161.866 77.3687 162.512 78.3222 163.211Z" fill="white" stroke="#F9F8FA" stroke-width="0.333333"/>
<path d="M97.2354 163.22C97.2354 161.572 99.6358 160.607 100.772 161.349C100.96 163.15 98.3615 163.891 97.2354 163.22Z" fill="white" stroke="#343534" stroke-width="0.333333"/>
<path d="M72.4121 165.947C79.0628 164.165 85.8564 162.949 92.5071 161.095C92.0867 161.858 91.3384 162.527 91.5486 163.588C87.3782 165.257 83.065 166.338 78.7181 167.018C76.6749 166.225 74.5309 166.132 72.4121 165.947Z" fill="white" stroke="#F5F0F5" stroke-width="0.333333"/>
<path d="M208.341 167.654C222.707 162.476 238.574 162.663 253.537 165.17C253.763 165.365 254.223 165.755 254.449 165.95C251.818 165.215 249.017 165.477 246.305 165.297C238.509 165.455 230.672 165.455 222.981 166.791C215.37 167.879 208.066 170.25 200.916 172.832C199.786 173.222 198.656 173.732 197.421 173.717C196.929 174.145 196.582 174.64 196.388 175.211C196.848 175.338 197.768 175.601 198.228 175.728C198.769 175.406 199.851 174.76 200.391 174.438C199.77 175.023 198.454 175.473 199.084 176.494C207.97 173.222 217.332 170.85 226.903 170.258C227.719 170.205 229.123 170.513 229.204 169.417C227.493 168.854 225.628 168.959 223.845 168.907C226.516 169.049 229.801 167.946 231.948 169.89C234.821 170.213 237.904 169.485 240.672 170.288C231.923 170.663 223.126 171.668 214.838 174.453C204.37 177.342 195.622 183.608 186.324 188.674C179.295 192.546 171.506 195.12 163.565 196.808C156.277 198.392 148.763 198.534 141.33 199C136.48 199 131.564 199.037 126.787 198.152C143.34 198.242 159.537 193.439 173.927 186.032C181.821 182.017 190.158 178.85 198.834 176.621C197.583 175.811 196.146 176.156 194.911 176.772C195.355 175.946 195.371 175.023 194.847 174.243C193.281 176.396 189.948 176.681 187.389 177.417C194.484 174.37 200.956 170.138 208.341 167.654Z" fill="white" stroke="#040506" stroke-width="0.333333"/>
<path d="M22.7656 163.464C25.6667 164.438 28.5188 165.625 31.6155 166.008C32.3326 165.5 33.1556 165.227 34.0928 165.197C33.1067 165.352 32.2674 165.736 31.5992 166.355C37.8739 167.579 44.1894 168.98 50.3827 170.389C52.1103 170.625 53.8542 170.75 55.5981 170.883C56.2826 171.473 55.4351 172.284 55.3536 172.94C44.6132 170.684 34.1091 167.579 23.6213 164.593C23.4012 164.312 22.9775 163.744 22.7656 163.464Z" fill="white" stroke="#040305" stroke-width="0.333333"/>
<path d="M57.2609 172.056L57.6622 171.756C59.4394 171.94 61.2248 172.049 63.0102 172.145L62.8955 172.288C62.7153 172.52 62.3468 172.984 62.1666 173.216C67.9404 173.304 73.7469 173.27 79.5043 173.72C76.9082 174.437 74.2056 174.805 71.5521 175.31C65.8766 174.934 60.3157 173.864 54.6812 173.359C55.5329 172.916 56.4174 172.513 57.2609 172.056Z" fill="white" stroke="#121213" stroke-width="0.333333"/>
<path d="M97.2354 177.02C102.337 174.484 97.6578 182.226 97.2354 177.02Z" fill="white" stroke="#424342" stroke-width="0.333333"/>
<path d="M125.604 197.195C128.733 196.451 131.917 196.491 135.061 197.035C131.955 198.257 128.733 197.832 125.604 197.195Z" fill="white" stroke="#DDDCDF" stroke-width="0.333333"/>
</svg>
